<?xml version="1.0" encoding="UTF-8"?>
<svg version="1.1" xmlns="http://www.w3.org/2000/svg" width="720" height="347">
<path d="M0 0 C237.6 0 475.2 0 720 0 C720 114.51 720 229.02 720 347 C482.4 347 244.8 347 0 347 C0 232.49 0 117.98 0 0 Z " fill="#FEFEFE" transform="translate(0,0)"/>
<path d="M0 0 C237.6 0 475.2 0 720 0 C720 114.51 720 229.02 720 347 C482.4 347 244.8 347 0 347 C0 232.49 0 117.98 0 0 Z M41 41 C41 50.9 41 60.8 41 71 C43.31 71.66 45.62 72.32 48 73 C50.36328125 74.33203125 50.36328125 74.33203125 52.3125 75.8125 C52.96863281 76.29332031 53.62476563 76.77414063 54.30078125 77.26953125 C58.16358487 81.20337493 58.31736383 85.62920895 58.375 90.9375 C58.2826748 96.45970122 58.05985523 99.94014477 54 104 C49.55808401 107.55353279 46.75034404 108.35704456 41 110 C41 118.58 41 127.16 41 136 C43.97 136.66 46.94 137.32 50 138 C55.44444444 141.88888889 55.44444444 141.88888889 57 145 C57.14754174 146.78752492 57.2211522 148.5816284 57.25 150.375 C57.27578125 151.33148438 57.3015625 152.28796875 57.328125 153.2734375 C56.95139099 156.40391775 55.98899232 157.6236776 54 160 C54 160.66 54 161.32 54 162 C49.64316103 163.90611705 45.7785934 164.80535165 41 166 C41 172.27 41 178.54 41 185 C43.97 185.66 46.94 186.32 50 187 C53.2586302 188.67219181 56.324708 190.64941599 58 194 C58.49206465 199.84024271 58.77983025 205.19079383 56.4375 210.625 C51.82886425 215.1154656 47.25899987 215.95683336 41 217 C41 224.26 41 231.52 41 239 C43.97 239.99 46.94 240.98 50 242 C54.50408968 243.90172675 56.32563608 246.40354088 58.26171875 250.76171875 C59.87279423 255.64609043 60.0733973 259.71351671 57.859375 264.4296875 C54.95172531 269.09723042 51.99989023 272.50005488 47 275 C45.02 275.33 43.04 275.66 41 276 C41 285.57 41 295.14 41 305 C249.23 305 457.46 305 672 305 C672 293.45 672 281.9 672 270 C669.03 269.34 666.06 268.68 663 268 C658.36767241 264.82599777 654.69369926 261.65067992 653.61328125 255.96484375 C653.17948471 250.3447686 654.61062744 246.8826504 658.21875 242.59375 C660.91514567 240.18118546 663.47714428 239.5764673 667 239 C668.65 238.67 670.3 238.34 672 238 C672 229.09 672 220.18 672 211 C668.7 210.67 665.4 210.34 662 210 C657.57064339 207.49645061 654.68222461 203.79876705 653 199 C652.08495957 194.13430881 651.84869144 189.93871578 654.43359375 185.5859375 C659.97707806 179.02912811 663.18108529 178.10236434 672 177 C672 171.39 672 165.78 672 160 C670.618125 159.608125 669.23625 159.21625 667.8125 158.8125 C662.27987973 156.95381752 659.53757586 154.17381414 656.1875 149.4375 C654.40665579 144.28242466 654.32559828 139.39521376 655 134 C656.75 130.5 656.75 130.5 659 128 C659.556875 127.2575 660.11375 126.515 660.6875 125.75 C663 124 663 124 672 122 C672 115.07 672 108.14 672 101 C670.081875 100.690625 668.16375 100.38125 666.1875 100.0625 C662.98889247 99.54659556 660.07588047 99.02529349 657 98 C656 96.1875 656 96.1875 655 94 C654.49082031 93.41734375 653.98164062 92.8346875 653.45703125 92.234375 C651.57713678 89.35153414 651.63148913 87.47916286 651.6875 84.0625 C651.69136719 83.04285156 651.69523438 82.02320313 651.69921875 80.97265625 C652.08216809 77.18792314 652.81029725 74.28022361 655.4375 71.453125 C661.85874818 66.5087639 662.53491035 66.94650896 672 66 C672 57.75 672 49.5 672 41 C463.77 41 255.54 41 41 41 Z " fill="#AF000F" transform="translate(0,0)"/>
<path d="M0 0 C208.23 0 416.46 0 631 0 C631 8.25 631 16.5 631 25 C627.7 25.33 624.4 25.66 621 26 C617.57776469 27.72410116 617.57776469 27.72410116 615 30 C614.401875 30.495 613.80375 30.99 613.1875 31.5 C610.05054289 35.46247214 610.62110749 41.27907135 610.6328125 46.078125 C611.1803028 50.43474991 612.87454456 52.03081733 616 55 C616 55.66 616 56.32 616 57 C621.20885862 58.62776832 625.35978694 59.29497337 631 60 C631 66.93 631 73.86 631 81 C626.545 81.99 626.545 81.99 622 83 C619.58140803 84.75065833 619.58140803 84.75065833 618 87 C617.443125 87.70125 616.88625 88.4025 616.3125 89.125 C612.91633572 93.97666326 613.50362435 99.26650156 614 105 C615.29795343 110.06780543 617.60166697 113.05240883 621.9375 115.9375 C625.14823302 117.82053428 627.12190938 118.22438188 631 119 C631 124.61 631 130.22 631 136 C629.329375 136.185625 627.65875 136.37125 625.9375 136.5625 C619.84219798 137.6399921 616.66690912 140.11078784 613 145 C611.00833724 148.98332551 611.47483577 153.67031269 612 158 C614.05350296 163.04340326 616.63987833 165.72990875 621 169 C624.3 169.33 627.6 169.66 631 170 C631 178.91 631 187.82 631 197 C625.555 197.99 625.555 197.99 620 199 C615.78042864 203.0740689 612.9046467 206.17372106 612.5625 212.125 C612.61720701 216.97047824 614.19992802 219.69234459 617.2890625 223.33984375 C621.49519439 227.42113611 625.26297506 228.04382918 631 229 C631 240.55 631 252.1 631 264 C422.77 264 214.54 264 0 264 C0 254.43 0 244.86 0 235 C3.465 234.01 3.465 234.01 7 233 C12.40138359 230.19128053 15.67765741 226.58350453 18 221 C19.09379408 215.5500521 18.17064375 210.62742864 15.46875 205.79296875 C11.49309269 200.93970624 5.95050189 199.19010038 0 198 C0 190.74 0 183.48 0 176 C4.455 175.01 4.455 175.01 9 174 C13.18755989 171.90622005 15.41137151 170.35461618 17 166 C17.80655558 160.10992441 18.29532817 154.90489436 14.875 149.875 C9.69760494 146.498438 6.22261324 145.03710221 0 144 C0 137.73 0 131.46 0 125 C2.50651042 124.25130208 5.01302083 123.50260417 7.51953125 122.75390625 C9.35473055 122.19612127 11.18033726 121.60655425 13 121 C14.15521502 118.52869082 14.15521502 118.52869082 15 116 C15.495 115.505 15.495 115.505 16 115 C16.51916001 110.64647246 16.99367246 106.02709183 15.0234375 102.0078125 C10.47851674 96.40333966 7.11125338 96.01589334 0 95 C0 86.42 0 77.84 0 69 C2.97 68.01 5.94 67.02 9 66 C12.71024053 63.36910217 15.39247478 61.27205332 17 57 C17.3172452 53.66262854 17.3172452 53.66262854 17.25 50.0625 C17.25515625 48.85722656 17.2603125 47.65195313 17.265625 46.41015625 C16.91724073 41.93751705 16.22092907 39.24046393 13.046875 36.015625 C12.28890625 35.43296875 11.5309375 34.8503125 10.75 34.25 C10.00234375 33.65703125 9.2546875 33.0640625 8.484375 32.453125 C5.59806914 30.56701301 5.59806914 30.56701301 0 30 C0 20.1 0 10.2 0 0 Z M354 20 C354 20.66 354 21.32 354 22 C328.31178793 22.11251575 302.66958404 22.05981812 277 21 C277 21.66 277 22.32 277 23 C275.74896484 22.83773926 274.49792969 22.67547852 273.20898438 22.50830078 C267.68458957 21.89742761 262.20943371 21.85595054 256.65625 21.8671875 C255.60594604 21.86623077 254.55564209 21.86527405 253.47351074 21.86428833 C251.2717279 21.86361193 249.069943 21.86542827 246.86816406 21.86962891 C243.48237724 21.8750281 240.09672048 21.86964366 236.7109375 21.86328125 C234.56770804 21.86394128 232.42447866 21.86522089 230.28125 21.8671875 C229.26470337 21.86516327 228.24815674 21.86313904 227.20080566 21.86105347 C226.26893433 21.86420563 225.33706299 21.86735779 224.37695312 21.87060547 C223.14193054 21.87179886 223.14193054 21.87179886 221.88195801 21.87301636 C219.98712765 21.79357256 219.98712765 21.79357256 219 23 C217.20873858 22.75734143 215.41761147 22.5136711 213.62695312 22.26660156 C208.02288485 21.69786155 202.37693674 21.85584417 196.75 21.875 C196.07747192 21.87555389 195.40494385 21.87610779 194.71203613 21.87667847 C183.57807308 21.8873457 172.47229572 22.17760534 161.35058594 22.73193359 C159.74618652 22.80468506 159.74618652 22.80468506 158.109375 22.87890625 C157.19124023 22.9260376 156.27310547 22.97316895 155.32714844 23.02172852 C152.44071744 23.00287818 149.69180453 22.80115555 146.82348633 22.51586914 C141.10771702 21.96179839 135.45415859 21.85514868 129.71484375 21.8671875 C128.69193741 21.86623077 127.66903107 21.86527405 126.61512756 21.86428833 C124.47657204 21.86361346 122.33801438 21.86541884 120.19946289 21.86962891 C116.91483045 21.87503733 113.63033166 21.86963497 110.34570312 21.86328125 C108.26041636 21.86394118 106.17512969 21.86522057 104.08984375 21.8671875 C102.61498756 21.86415115 102.61498756 21.86415115 101.1103363 21.86105347 C99.7523568 21.86578171 99.7523568 21.86578171 98.36694336 21.87060547 C97.17094765 21.87179886 97.17094765 21.87179886 95.95079041 21.87301636 C93.91953116 21.8784966 93.91953116 21.8784966 92 23 C90.07616795 22.76931248 88.15271525 22.53358821 86.23388672 22.26443481 C82.67554855 21.84321896 79.14124112 21.87684174 75.5625 21.90234375 C74.79695801 21.9037587 74.03141602 21.90517365 73.24267578 21.90663147 C70.82840858 21.91217147 68.41423856 21.92471221 66 21.9375 C64.35026177 21.94252277 62.70052206 21.94708431 61.05078125 21.95117188 C57.03381745 21.96212114 53.01692513 21.97934334 49 22 C48.8323954 26.27079707 48.66607641 30.54164325 48.5 34.8125 C48.45230469 36.02744141 48.40460938 37.24238281 48.35546875 38.49414062 C48.31035156 39.65751953 48.26523438 40.82089844 48.21875 42.01953125 C48.17685547 43.09307861 48.13496094 44.16662598 48.09179688 45.27270508 C48.02756746 47.18096796 48 49.09065649 48 51 C47.9957832 53.43076147 47.99126735 55.86152162 47.98654175 58.2922821 C47.94598979 79.79610047 47.91592923 101.29991154 47.89637566 122.80375957 C47.88606078 133.85185465 47.8719894 144.89992124 47.84912109 155.94799805 C47.82917782 165.58774532 47.81628173 175.22747197 47.81182301 184.8672393 C47.80921814 189.96812073 47.80310499 195.06894305 47.78853989 200.16980553 C47.77494158 204.97061002 47.77078192 209.77133117 47.77378464 214.57215309 C47.77323557 216.33132506 47.76927273 218.09049988 47.76158905 219.84965515 C47.75158995 222.25747136 47.75404903 224.66497575 47.75949097 227.07279968 C47.75366528 227.76338508 47.7478396 228.45397047 47.74183738 229.1654827 C47.77185673 234.10342447 48.54130032 238.31224882 50 243 C52.52475462 244.26237731 54.31200466 244.09856404 57.125 244.0625 C58.03507812 244.05347656 58.94515625 244.04445313 59.8828125 244.03515625 C60.58148438 244.02355469 61.28015625 244.01195312 62 244 C62.33 244.66 62.66 245.32 63 246 C63 245.34 63 244.68 63 244 C63.60585937 244.0721875 64.21171875 244.144375 64.8359375 244.21875 C70.8697616 244.88711205 76.92798701 245.41706756 83 245 C83.33 244.67 83.66 244.34 84 244 C85.35333748 243.95261838 86.70884302 243.96284989 88.0625 244 C92.47498021 244.05657026 96.63598152 243.63476632 101 243 C101.33 243.66 101.66 244.32 102 245 C114.21 244.67 126.42 244.34 139 244 C139.33 244.99 139.66 245.98 140 247 C140.33 245.68 140.66 244.36 141 243 C147.75 243.875 147.75 243.875 150 245 C153.61480975 244.64408027 157.19455208 244.17329067 160.79101562 243.671875 C166.69625464 242.89875155 166.69625464 242.89875155 170 244 C172.88092412 244.26296468 175.73797997 244.4719848 178.625 244.625 C179.46877197 244.67076172 180.31254395 244.71652344 181.18188477 244.76367188 C188.11525663 245.0800333 194.8698819 244.77461891 201.77734375 244.15625 C206.14178852 243.87601343 210.38597544 244.34577224 214.73168945 244.75097656 C220.52546112 245.19242327 226.31740719 245.14664272 232.125 245.125 C233.38658936 245.12306641 234.64817871 245.12113281 235.94799805 245.11914062 C245.65908059 245.074472 255.3170627 244.72589624 265 244 C265 244.66 265 245.32 265 246 C265.66 246 266.32 246 267 246 C267 245.01 267 244.02 267 243 C269.64 243 272.28 243 275 243 C275 242.34 275 241.68 275 241 C275.99 241.66 276.98 242.32 278 243 C283.05857175 243.84309529 287.86387499 244.10070833 293 244 C293.99 244 294.98 244 296 244 C296.845625 243.814375 297.69125 243.62875 298.5625 243.4375 C301 243 301 243 303 244 C305.0374763 244.22858114 307.08040303 244.41024278 309.125 244.5625 C310.22070312 244.64628906 311.31640625 244.73007812 312.4453125 244.81640625 C313.28835938 244.87699219 314.13140625 244.93757812 315 245 C315 244.34 315 243.68 315 243 C317.64 243 320.28 243 323 243 C323.33 243.66 323.66 244.32 324 245 C328.95 243.02 328.95 243.02 334 241 C334 241.66 334 242.32 334 243 C337.3 243.66 340.6 244.32 344 245 C344 244.34 344 243.68 344 243 C345.90072266 243.23396484 345.90072266 243.23396484 347.83984375 243.47265625 C349.53900164 243.66979612 351.23822398 243.86638102 352.9375 244.0625 C353.76830078 244.16626953 354.59910156 244.27003906 355.45507812 244.37695312 C361.1863235 245.02366953 366.28890597 244.82410338 372 244 C372.33 244.66 372.66 245.32 373 246 C373 245.01 373 244.02 373 243 C373.928125 243.165 374.85625 243.33 375.8125 243.5 C380.85733621 244.23700282 385.91435711 244.08276815 391 244 C391.33 244.66 391.66 245.32 392 246 C392.32742188 245.48695313 392.65484375 244.97390625 392.9921875 244.4453125 C395.71213348 242.48737473 397.69813888 243.02334221 400.90234375 243.49609375 C401.63582031 243.62113281 402.36929687 243.74617187 403.125 243.875 C405.74880913 244.29024631 408.36389392 244.66385225 411 245 C411.33 244.67 411.66 244.34 412 244 C414.65463121 243.54540142 417.32189138 243.29756762 420 243 C420.33 243.66 420.66 244.32 421 245 C424.3 245 427.6 245 431 245 C431.33 244.34 431.66 243.68 432 243 C434.31 243 436.62 243 439 243 C439.33 243.66 439.66 244.32 440 245 C440.33 244.67 440.66 244.34 441 244 C442.32481973 243.74303066 443.66090986 243.54238627 445 243.375 C446.0828125 243.23191406 446.0828125 243.23191406 447.1875 243.0859375 C447.785625 243.05757812 448.38375 243.02921875 449 243 C449.33 243.33 449.66 243.66 450 244 C457.76269736 245.42080885 465.60320583 244.94306035 473.4375 244.5625 C475.74860762 244.45762621 478.05980628 244.35473862 480.37109375 244.25390625 C482.03567627 244.17873779 482.03567627 244.17873779 483.73388672 244.10205078 C487.75429846 243.9764317 491.75794995 244.04393624 495.77758789 244.17553711 C498.2899065 244.15878529 498.2899065 244.15878529 501 242 C504.6875 243.375 504.6875 243.375 508 245 C508.33 244.67 508.66 244.34 509 244 C511.65822657 243.87341778 514.27887424 243.81479786 516.9375 243.8125 C517.67935547 243.80025391 518.42121094 243.78800781 519.18554688 243.77539062 C521.12513629 243.77011522 523.0642371 243.87811098 525 244 C525.66 244.66 526.32 245.32 527 246 C527 245.34 527 244.68 527 244 C527.60996826 244.00523682 528.21993652 244.01047363 528.84838867 244.01586914 C531.62808185 244.03673335 534.40775851 244.04969013 537.1875 244.0625 C538.14720703 244.07087891 539.10691406 244.07925781 540.09570312 244.08789062 C541.02705078 244.09111328 541.95839844 244.09433594 542.91796875 244.09765625 C543.77156982 244.10289307 544.6251709 244.10812988 545.50463867 244.11352539 C548.09378476 243.9957333 550.46947744 243.54166196 553 243 C553.66 243 554.32 243 555 243 C555.33 243.66 555.66 244.32 556 245 C564.16240568 245.33853295 571.95072024 244.29901921 580 243 C583.28500473 225.76051234 582.5319677 207.31259963 580 190 C580.66 190 581.32 190 582 190 C582.0231211 177.10927745 582.04091389 164.2185598 582.05181217 151.32782078 C582.05704151 145.34280734 582.06414008 139.35780804 582.07543945 133.37280273 C582.08626653 127.60216571 582.09227645 121.83154232 582.09487724 116.06089592 C582.09673182 113.85397057 582.10035304 111.647046 582.10573006 109.44012642 C582.1129381 106.36053959 582.11399104 103.28100986 582.11352539 100.20141602 C582.11712067 99.27928818 582.12071594 98.35716034 582.12442017 97.40708923 C582.52621451 93.38417427 582.52621451 93.38417427 581 90 C580.90009611 88.28749651 580.86919099 86.57088269 580.8671875 84.85546875 C580.86589844 83.78490234 580.86460937 82.71433594 580.86328125 81.61132812 C580.86714844 80.48146484 580.87101563 79.35160156 580.875 78.1875 C580.87113281 77.10017578 580.86726562 76.01285156 580.86328125 74.89257812 C580.871121 68.29542449 581.19391296 61.82112336 581.88330078 55.2590332 C581.92181152 54.51355225 581.96032227 53.76807129 582 53 C581.67 52.67 581.34 52.34 581 52 C580.89793039 49.36420241 580.85960593 46.76074507 580.875 44.125 C580.8762085 43.35792725 580.87741699 42.59085449 580.87866211 41.80053711 C580.91484675 36.49252918 581.22696223 31.27579926 581.87890625 26.00390625 C582.17211431 23.92727022 582.17211431 23.92727022 581 22 C578.35375716 22.14021805 575.70815422 22.28689776 573.0625 22.4375 C572.30775391 22.47681641 571.55300781 22.51613281 570.77539062 22.55664062 C567.08055813 22.44038024 567.08055813 22.44038024 564 24 C563.175 23.67 562.35 23.34 561.5 23 C557.38672622 21.82477892 554.26535881 21.86015217 550 22 C547.68712466 22 545.37421076 21.94838764 543.0625 21.875 C540.38695152 21.85063253 539.24938964 21.8606352 536.875 23.1875 C536.25625 23.455625 535.6375 23.72375 535 24 C534.17242188 23.52949219 533.34484375 23.05898437 532.4921875 22.57421875 C527.94354418 20.52376768 524.17381508 20.55755048 519.25 20.625 C518.38761719 20.61339844 517.52523438 20.60179688 516.63671875 20.58984375 C515.81300781 20.59371094 514.98929688 20.59757812 514.140625 20.6015625 C513.39329102 20.60494629 512.64595703 20.60833008 511.87597656 20.61181641 C509.58864904 20.85610375 509.58864904 20.85610375 508 24 C504.04 22.515 504.04 22.515 500 21 C499.67 21.33 499.34 21.66 499 22 C492.43986193 23.26599156 487.36223396 22.81778113 481 21 C480.34 21.33 479.68 21.66 479 22 C473.17769049 22.97038492 467.51420175 23.05453235 461.64526367 22.53173828 C453.56401139 21.9084673 445.52362156 21.85449462 437.42578125 21.8671875 C435.88356003 21.86651184 434.34133891 21.86553964 432.79911804 21.86428833 C429.59987351 21.86282855 426.40065723 21.86491309 423.20141602 21.86962891 C419.10146292 21.87537876 415.00157456 21.87200352 410.90162373 21.86605644 C407.73182178 21.86244932 404.5620353 21.8635892 401.39223289 21.86618423 C399.87915222 21.86685034 398.36607013 21.86603614 396.8529911 21.86370468 C394.75001892 21.86116993 392.64715365 21.86502795 390.54418945 21.87060547 C389.34953568 21.87140106 388.1548819 21.87219666 386.92402649 21.87301636 C383.93621496 21.86861185 383.93621496 21.86861185 381 23 C379.96746094 22.84660156 378.93492187 22.69320312 377.87109375 22.53515625 C373.47661337 21.92764484 369.46658923 22.10917458 365.0625 22.4375 C364.28326172 22.48970703 363.50402344 22.54191406 362.70117188 22.59570312 C360.80033228 22.72398064 358.90009096 22.86107321 357 23 C357 22.01 357 21.02 357 20 C356.01 20 355.02 20 354 20 Z " fill="#FDFAFA" transform="translate(41,41)"/>
<path d="M0 0 C6.0046514 0.37529071 10.42253157 1.99843866 15 6 C18.39944709 10.37071768 19.78788187 15.18547912 19.51171875 20.69921875 C18.03254801 27.34984138 13.2679807 32.3196317 7.90625 36.22265625 C6 37 6 37 0 37 C0 46.57 0 56.14 0 66 C208.23 66 416.46 66 631 66 C631 54.45 631 42.9 631 31 C628.03 30.67 625.06 30.34 622 30 C618.9375 27.4375 618.9375 27.4375 617 25 C618.89669927 25.06050077 620.79250333 25.14942117 622.6875 25.25 C623.74324219 25.29640625 624.79898438 25.3428125 625.88671875 25.390625 C629.72347597 26.14160885 631.40905731 27.06613843 634 30 C634.48828125 33.453125 634.48828125 33.453125 634.3125 37.25 C634.26738281 38.51328125 634.22226562 39.7765625 634.17578125 41.078125 C634.08876953 42.52445312 634.08876953 42.52445312 634 44 C633.67 44 633.34 44 633 44 C632.67 52.58 632.34 61.16 632 70 C628.043113 70.98922175 626.78399043 70.85086865 623 70 C621.4760452 69.91542648 619.94908517 69.87549197 618.42278546 69.8758015 C617.52713058 69.87355421 616.6314757 69.87130692 615.70867977 69.86899152 C614.24356066 69.87293204 614.24356066 69.87293204 612.74884319 69.87695217 C611.17759952 69.8752214 611.17759952 69.8752214 609.57461354 69.87345567 C606.0414004 69.8707949 602.50823221 69.8753068 598.97502136 69.87974548 C596.42570415 69.87930967 593.87638698 69.87843458 591.32707006 69.87715632 C585.77248934 69.87538242 580.21792271 69.87672786 574.66334343 69.88079453 C566.40386412 69.88682475 558.14439157 69.88713077 549.88491046 69.88625254 C535.99176003 69.88493796 522.09861436 69.88828261 508.20546532 69.89426994 C494.44674849 69.90018416 480.68803365 69.90403532 466.92931557 69.90512276 C466.0742833 69.9051915 465.21925104 69.90526024 464.3383087 69.90533106 C459.99614579 69.90566939 455.65398287 69.90597077 451.31181995 69.90625793 C420.54519958 69.90835912 389.7785818 69.91509864 359.01196289 69.92456055 C329.12003595 69.93374285 299.22810971 69.94082751 269.33618164 69.94506836 C268.41500677 69.94519989 267.49383191 69.94533141 266.54474265 69.94546692 C257.294043 69.94678543 248.04334335 69.94806124 238.79264369 69.94930578 C219.94739983 69.95184209 201.10215602 69.95466334 182.25691223 69.95765686 C180.95716191 69.9578628 180.95716191 69.9578628 179.631154 69.95807289 C121.75410158 69.96727571 63.87705063 69.98314194 6 70 C6 70.66 6 71.32 6 72 C4.68 71.67 3.36 71.34 2 71 C2 70.34 2 69.68 2 69 C0.68 68.67 -0.64 68.34 -2 68 C-2.06058594 67.31292969 -2.12117188 66.62585938 -2.18359375 65.91796875 C-2.26738281 65.01691406 -2.35117187 64.11585938 -2.4375 63.1875 C-2.51871094 62.29417969 -2.59992187 61.40085937 -2.68359375 60.48046875 C-2.93489767 57.87256441 -2.93489767 57.87256441 -4 55 C-3.75867872 52.9279656 -3.43760371 50.86453794 -3.0625 48.8125 C-2.86785156 47.72582031 -2.67320313 46.63914062 -2.47265625 45.51953125 C-2.31667969 44.68808594 -2.16070312 43.85664063 -2 43 C-2.66 42.67 -3.32 42.34 -4 42 C-3.40912215 38.82403153 -2.78548239 36.63842071 -0.2265625 34.55859375 C2.51528109 32.85131196 5.20656759 31.31010915 8.21875 30.1328125 C10.20392225 29.15268054 10.20392225 29.15268054 10.5390625 26.9765625 C10.56742188 26.20054687 10.59578125 25.42453125 10.625 24.625 C10.77547492 21.16407678 11.4238385 19.06475846 13 16 C13.16724737 12.83304044 13.16724737 12.83304044 13 10 C12.443125 9.773125 11.88625 9.54625 11.3125 9.3125 C8.33840412 7.62449964 6.27991135 5.53323483 4 3 C4 2.34 4 1.68 4 1 C2.68 0.67 1.36 0.34 0 0 Z " fill="#97050D" transform="translate(41,239)"/>
<path d="M0 0 C1.14248199 -0.00021904 1.14248199 -0.00021904 2.30804443 -0.0004425 C4.80776895 0.00025021 7.30741752 0.00801241 9.80712891 0.01586914 C11.54733235 0.0177356 13.28753632 0.01915843 15.02774048 0.02015686 C19.59468044 0.02396409 24.1615883 0.03377897 28.72851562 0.04486084 C33.39403855 0.05511362 38.0595667 0.05966275 42.72509766 0.06469727 C51.86964296 0.07540292 61.01416451 0.09245769 70.15869141 0.11352539 C70.15869141 0.77352539 70.15869141 1.43352539 70.15869141 2.11352539 C71.87987037 2.10978186 71.87987037 2.10978186 73.63582063 2.10596269 C124.1882582 1.99607813 174.74069825 1.88743751 225.29315186 1.78517151 C226.44055474 1.78284982 226.44055474 1.78284982 227.61113748 1.78048122 C244.23389215 1.7468537 260.85664727 1.71345027 277.47940286 1.68027779 C285.6307999 1.66400945 293.78219685 1.64769157 301.93359375 1.63134766 C303.15035857 1.62890925 303.15035857 1.62890925 304.3917045 1.62642159 C330.70023412 1.57367594 357.00875554 1.51765706 383.31727471 1.45994682 C410.34508772 1.40067599 437.37290559 1.34469525 464.40073396 1.2928743 C468.21527361 1.28555907 472.02981319 1.2782061 475.84435272 1.27083015 C476.97052425 1.26865429 476.97052425 1.26865429 478.11944672 1.26643448 C490.22137159 1.24295534 502.32328634 1.21599177 514.4252009 1.18773601 C526.58175543 1.15942665 538.73831298 1.13476234 550.89488253 1.11385422 C557.48560361 1.10241694 564.07631262 1.08920645 570.6670208 1.07169533 C576.69343858 1.05571914 582.71984645 1.04433307 588.7462804 1.0366943 C590.93342013 1.03309443 593.1205578 1.02776819 595.30768874 1.02059703 C598.26722945 1.01113856 601.22671405 1.00781185 604.18626785 1.00609493 C605.04691937 1.00186357 605.90757089 0.99763221 606.79430276 0.99327263 C613.76252422 1.00047576 613.76252422 1.00047576 617.15869141 2.11352539 C620.29889173 5.47802573 620.31798791 8.46214021 620.28369141 12.86352539 C620.24501953 13.82774414 620.20634766 14.79196289 620.16650391 15.78540039 C620.16263672 16.93782227 620.16263672 16.93782227 620.15869141 18.11352539 C620.48869141 18.44352539 620.81869141 18.77352539 621.15869141 19.11352539 C620.83361322 24.53149511 619.64977839 28.94074687 616.15869141 33.11352539 C613.89044374 34.76847004 611.70750832 35.88813264 609.15869141 37.11352539 C608.82869141 36.45352539 608.49869141 35.79352539 608.15869141 35.11352539 C605.84869141 35.44352539 603.53869141 35.77352539 601.15869141 36.11352539 C600.82869141 37.10352539 600.49869141 38.09352539 600.15869141 39.11352539 C599.16869141 39.11352539 598.17869141 39.11352539 597.15869141 39.11352539 C597.15869141 44.39352539 597.15869141 49.67352539 597.15869141 55.11352539 C596.49869141 54.78352539 595.83869141 54.45352539 595.15869141 54.11352539 C595.10427485 52.21801518 595.06571106 50.32204619 595.03369141 48.42602539 C595.01048828 47.3702832 594.98728516 46.31454102 594.96337891 45.22680664 C595.22020518 41.13299583 595.98250729 38.36738205 598.81494141 35.34790039 C599.42337891 34.85805664 600.03181641 34.36821289 600.65869141 33.86352539 C601.26712891 33.36336914 601.87556641 32.86321289 602.50244141 32.34790039 C607.34181726 28.74119574 608.22433831 30.11352539 616.15869141 30.11352539 C616.15869141 21.86352539 616.15869141 13.61352539 616.15869141 5.11352539 C407.92869141 5.11352539 199.69869141 5.11352539 -14.84130859 5.11352539 C-14.84130859 15.01352539 -14.84130859 24.91352539 -14.84130859 35.11352539 C-12.86130859 35.11352539 -10.88130859 35.11352539 -8.84130859 35.11352539 C-6.35693359 36.57446289 -6.35693359 36.57446289 -4.09130859 38.48852539 C-3.33333984 39.11500977 -2.57537109 39.74149414 -1.79443359 40.38696289 C2.62399512 44.29285387 2.59964807 46.3367442 3.15869141 52.11352539 C1.15869141 50.11352539 1.15869141 50.11352539 0.22119141 48.11352539 C-0.80917718 45.7922113 -0.80917718 45.7922113 -3.84130859 44.11352539 C-3.51130859 43.45352539 -3.18130859 42.79352539 -2.84130859 42.11352539 C-3.83130859 42.11352539 -4.82130859 42.11352539 -5.84130859 42.11352539 C-5.84130859 41.45352539 -5.84130859 40.79352539 -5.84130859 40.11352539 C-7.49130859 39.78352539 -9.14130859 39.45352539 -10.84130859 39.11352539 C-10.84130859 38.45352539 -10.84130859 37.79352539 -10.84130859 37.11352539 C-11.64568359 36.96915039 -12.45005859 36.82477539 -13.27880859 36.67602539 C-15.84130859 36.11352539 -15.84130859 36.11352539 -16.84130859 35.11352539 C-17.07417868 33.43168591 -17.25395025 31.74228379 -17.40380859 30.05102539 C-17.48759766 29.13192383 -17.57138672 28.21282227 -17.65771484 27.26586914 C-17.74859375 26.20045898 -17.74859375 26.20045898 -17.84130859 25.11352539 C-18.17130859 25.11352539 -18.50130859 25.11352539 -18.84130859 25.11352539 C-18.84130859 22.14352539 -18.84130859 19.17352539 -18.84130859 16.11352539 C-18.18130859 16.11352539 -17.52130859 16.11352539 -16.84130859 16.11352539 C-16.95990234 15.36586914 -17.07849609 14.61821289 -17.20068359 13.84790039 C-18.25332576 5.80571423 -18.25332576 5.80571423 -16.27880859 2.48852539 C-11.27363498 -0.33490588 -5.61190828 -0.0285063 0 0 Z " fill="#88161D" transform="translate(55.84130859375,35.886474609375)"/>
<path d="M0 0 C1.89669927 0.06050077 3.79250333 0.14942117 5.6875 0.25 C6.74324219 0.29640625 7.79898438 0.3428125 8.88671875 0.390625 C12.72347597 1.14160885 14.40905731 2.06613843 17 5 C17.48828125 8.453125 17.48828125 8.453125 17.3125 12.25 C17.26738281 13.51328125 17.22226562 14.7765625 17.17578125 16.078125 C17.08876953 17.52445312 17.08876953 17.52445312 17 19 C16.67 19 16.34 19 16 19 C15.67 26.92 15.34 34.84 15 43 C-193.56 43 -402.12 43 -617 43 C-617 42.34 -617 41.68 -617 41 C-408.77 41 -200.54 41 14 41 C14 29.45 14 17.9 14 6 C11.03 5.67 8.06 5.34 5 5 C1.9375 2.4375 1.9375 2.4375 0 0 Z " fill="#9C464C" transform="translate(658,264)"/>
<path d="M0 0 C207.24 0 414.48 0 628 0 C628 0.66 628 1.32 628 2 C624.84956091 3.01264114 623.15336125 2.78949648 620 2 C618.51127091 1.91101218 617.0191327 1.87149595 615.52774787 1.86938947 C614.63004003 1.86570876 613.73233219 1.86202805 612.80742109 1.85823581 C611.82323497 1.85925847 610.83904885 1.86028114 609.82503891 1.8613348 C608.24792832 1.85707147 608.24792832 1.85707147 606.6389569 1.85272202 C603.08642491 1.8443449 599.53392541 1.84310444 595.98138428 1.84178162 C593.42055504 1.83721832 590.85972655 1.83221864 588.29889894 1.82681805 C582.71607487 1.81575102 577.13325535 1.80838536 571.55042267 1.80341911 C563.24891354 1.79601779 554.94742022 1.78293574 546.64592039 1.76867336 C532.68248718 1.74484522 518.71905116 1.72564845 504.7556076 1.70907402 C490.92628342 1.69264372 477.09696448 1.67416548 463.26764679 1.65294075 C462.40838674 1.65162314 461.5491267 1.65030554 460.66382847 1.648948 C456.30023641 1.64224609 451.93664441 1.63550748 447.57305244 1.62875474 C416.65059473 1.58096772 385.72813213 1.53778958 354.80566406 1.49731445 C324.76138961 1.45797828 294.71711921 1.41655909 264.67285156 1.37231445 C263.747063 1.37095192 262.82127444 1.36958939 261.86743168 1.36818558 C252.57044215 1.35450042 243.27345268 1.34077286 233.97646326 1.32701423 C215.0367384 1.29898627 196.09701313 1.27124138 177.1572876 1.2436676 C176.28643363 1.2423994 175.41557965 1.2411312 174.51833617 1.23982458 C116.34556403 1.15514174 58.17278265 1.07707862 0 1 C0 0.67 0 0.34 0 0 Z " fill="#89060F" transform="translate(45,307)"/>
<path d="M0 0 C1.3609623 2.7219246 0.70366248 4.1831957 0.0625 7.125 C-0.13214844 8.03507813 -0.32679688 8.94515625 -0.52734375 9.8828125 C-0.68332031 10.58148438 -0.83929687 11.28015625 -1 12 C-0.34 12 0.32 12 1 12 C1.268125 13.134375 1.53625 14.26875 1.8125 15.4375 C2.4003125 17.2009375 2.4003125 17.2009375 3 19 C3.99 19.33 4.98 19.66 6 20 C6 20.66 6 21.32 6 22 C6.59167969 22.04898438 7.18335938 22.09796875 7.79296875 22.1484375 C17.03422053 23.02281369 17.03422053 23.02281369 20 25 C22.03651823 29.75187586 22.17037901 34.10766876 21.97265625 39.1796875 C21.78899011 41.02112559 21.78899011 41.02112559 23 42 C22.55406513 46.54853564 21.85290684 50.80657925 20 55 C16.77743538 57.18302765 13.50708833 57.98121895 9.625 58.125 C5.285337 59.17250486 4.24014764 60.35904488 1.93359375 64.01171875 C0.51323232 67.03667259 0.20358175 69.67483137 0 73 C-0.33 73 -0.66 73 -1 73 C-1.67624785 67.59001717 -1.4849747 64.00712672 1.875 59.5625 C7.3524189 53.01341218 7.1955929 53.98221883 18 53 C18 44.09 18 35.18 18 26 C14.7 26 11.4 26 8 26 C3.31329675 23.13590357 -0.27105761 19.28506253 -2 14 C-2.58889846 8.74408124 -2.98911623 4.48367435 0 0 Z " fill="#93050D" transform="translate(654,185)"/>
<path d="M0 0 C6.0046514 0.37529071 10.42253157 1.99843866 15 6 C18.39944709 10.37071768 19.78788187 15.18547912 19.51171875 20.69921875 C18.03254801 27.34984138 13.2679807 32.3196317 7.90625 36.22265625 C6 37 6 37 0 37 C0 46.57 0 56.14 0 66 C-0.33 66 -0.66 66 -1 66 C-1.33 58.41 -1.66 50.82 -2 43 C-2.66 42.67 -3.32 42.34 -4 42 C-3.40912215 38.82403153 -2.78548239 36.63842071 -0.2265625 34.55859375 C2.51528109 32.85131196 5.20656759 31.31010915 8.21875 30.1328125 C10.20392225 29.15268054 10.20392225 29.15268054 10.5390625 26.9765625 C10.56742188 26.20054687 10.59578125 25.42453125 10.625 24.625 C10.77547492 21.16407678 11.4238385 19.06475846 13 16 C13.16724737 12.83304044 13.16724737 12.83304044 13 10 C12.443125 9.773125 11.88625 9.54625 11.3125 9.3125 C8.33840412 7.62449964 6.27991135 5.53323483 4 3 C4 2.34 4 1.68 4 1 C2.68 0.67 1.36 0.34 0 0 Z " fill="#950F15" transform="translate(41,239)"/>
<path d="M0 0 C-0.09087891 1.34578125 -0.09087891 1.34578125 -0.18359375 2.71875 C-0.81650098 12.14419928 -1.41767537 21.57129691 -2 31 C-3.98 31.495 -3.98 31.495 -6 32 C-6.10849626 21.93395765 -5.9767249 12.02887177 -5 2 C-5.53109375 2.16371094 -6.0621875 2.32742187 -6.609375 2.49609375 C-9.53876764 3.11356377 -12.25822936 3.09501925 -15.25 3.0625 C-16.32765625 3.05347656 -17.4053125 3.04445313 -18.515625 3.03515625 C-19.33546875 3.02355469 -20.1553125 3.01195313 -21 3 C-21.33 3.66 -21.66 4.32 -22 5 C-22.825 4.67 -23.65 4.34 -24.5 4 C-28.5873983 2.83217191 -31.76923344 2.8541115 -36 3 C-36 2.01 -36 1.02 -36 0 C-11.15969257 -3.71989752 -11.15969257 -3.71989752 0 0 Z " fill="#F5E1E1" transform="translate(627,61)"/>
<path d="M0 0 C0.33 0 0.66 0 1 0 C1 6.27 1 12.54 1 19 C3.97 19.33 6.94 19.66 10 20 C12.59375 21.33984375 12.59375 21.33984375 14.5 22.9375 C15.1496875 23.46214844 15.799375 23.98679688 16.46875 24.52734375 C19.47796654 27.4214117 19.25429076 30.15302585 19.375 34.1875 C19.32373634 39.34234558 18.99960176 42.77746608 15.5546875 46.69921875 C10.84691874 50.63813081 7.04040415 51 1 51 C1 58.26 1 65.52 1 73 C0.34 72.67 -0.32 72.34 -1 72 C-1.37890625 69.671875 -1.37890625 69.671875 -1.5625 66.75 C-1.75290294 63.8745271 -1.95932646 61.18154945 -2.58984375 58.3671875 C-3.25955484 54.50199779 -1.95814599 52.30437136 0 49 C3.88457665 46.84190186 7.61651892 45.6641638 12 45 C14.81864489 38.65804899 15.19648703 30.58946108 13 24 C9.97717357 22.96452953 9.97717357 22.96452953 6.4375 22.3125 C3.2509375 21.6628125 3.2509375 21.6628125 0 21 C0 14.07 0 7.14 0 0 Z " fill="#8A0D13" transform="translate(40,166)"/>
<path d="M0 0 C1.14248199 -0.00021904 1.14248199 -0.00021904 2.30804443 -0.0004425 C4.80776895 0.00025021 7.30741752 0.00801241 9.80712891 0.01586914 C11.54733235 0.0177356 13.28753632 0.01915843 15.02774048 0.02015686 C19.59468044 0.02396409 24.1615883 0.03377897 28.72851562 0.04486084 C33.39403855 0.05511362 38.0595667 0.05966275 42.72509766 0.06469727 C51.86964296 0.07540292 61.01416451 0.09245769 70.15869141 0.11352539 C70.15869141 0.77352539 70.15869141 1.43352539 70.15869141 2.11352539 C42.10869141 2.44352539 14.05869141 2.77352539 -14.84130859 3.11352539 C-14.84130859 13.67352539 -14.84130859 24.23352539 -14.84130859 35.11352539 C-12.86130859 35.11352539 -10.88130859 35.11352539 -8.84130859 35.11352539 C-6.35693359 36.57446289 -6.35693359 36.57446289 -4.09130859 38.48852539 C-3.33333984 39.11500977 -2.57537109 39.74149414 -1.79443359 40.38696289 C2.62399512 44.29285387 2.59964807 46.3367442 3.15869141 52.11352539 C1.15869141 50.11352539 1.15869141 50.11352539 0.22119141 48.11352539 C-0.80917718 45.7922113 -0.80917718 45.7922113 -3.84130859 44.11352539 C-3.51130859 43.45352539 -3.18130859 42.79352539 -2.84130859 42.11352539 C-3.83130859 42.11352539 -4.82130859 42.11352539 -5.84130859 42.11352539 C-5.84130859 41.45352539 -5.84130859 40.79352539 -5.84130859 40.11352539 C-7.49130859 39.78352539 -9.14130859 39.45352539 -10.84130859 39.11352539 C-10.84130859 38.45352539 -10.84130859 37.79352539 -10.84130859 37.11352539 C-11.64568359 36.96915039 -12.45005859 36.82477539 -13.27880859 36.67602539 C-15.84130859 36.11352539 -15.84130859 36.11352539 -16.84130859 35.11352539 C-17.07417868 33.43168591 -17.25395025 31.74228379 -17.40380859 30.05102539 C-17.48759766 29.13192383 -17.57138672 28.21282227 -17.65771484 27.26586914 C-17.74859375 26.20045898 -17.74859375 26.20045898 -17.84130859 25.11352539 C-18.17130859 25.11352539 -18.50130859 25.11352539 -18.84130859 25.11352539 C-18.84130859 22.14352539 -18.84130859 19.17352539 -18.84130859 16.11352539 C-18.18130859 16.11352539 -17.52130859 16.11352539 -16.84130859 16.11352539 C-16.95990234 15.36586914 -17.07849609 14.61821289 -17.20068359 13.84790039 C-18.25332576 5.80571423 -18.25332576 5.80571423 -16.27880859 2.48852539 C-11.27363498 -0.33490588 -5.61190828 -0.0285063 0 0 Z " fill="#99030C" transform="translate(55.84130859375,35.886474609375)"/>
<path d="M0 0 C1.06927734 0.2165625 1.06927734 0.2165625 2.16015625 0.4375 C7.53773843 1.4797232 12.52360792 2.2433952 18 2 C18 3.32 18 4.64 18 6 C7.75876714 6.96615404 -2.18965148 6.94293281 -12.45556641 6.40869141 C-20.64884793 5.98582119 -28.7968197 5.8928467 -37 6 C-37 5.01 -37 4.02 -37 3 C-28.09 3 -19.18 3 -10 3 C-10 3.66 -10 4.32 -10 5 C-9.34 5 -8.68 5 -8 5 C-8 4.01 -8 3.02 -8 2 C-5.36 2 -2.72 2 0 2 C0 1.34 0 0.68 0 0 Z " fill="#CCA3A5" transform="translate(316,282)"/>
<path d="M0 0 C0.33 0 0.66 0 1 0 C1 8.58 1 17.16 1 26 C3.31 26 5.62 26 8 26 C12.28892996 28.27060998 15.63979385 30.73347349 18 35 C18.78419112 40.23327544 18.62478841 44.56819322 16.5 49.4375 C12.64627386 53.3875693 8.54956444 55.7875363 3 56.25 C2.34 56.1675 1.68 56.085 1 56 C2.485 55.505 2.485 55.505 4 55 C4 54.34 4 53.68 4 53 C6.97 52.34 9.94 51.68 13 51 C12.95875 50.236875 12.9175 49.47375 12.875 48.6875 C13 46 13 46 15 43 C15.66 43 16.32 43 17 43 C17 41.68 17 40.36 17 39 C16.34 39 15.68 39 15 39 C15 37.68 15 36.36 15 35 C14.34 35 13.68 35 13 35 C13 34.34 13 33.68 13 33 C12.01 33 11.02 33 10 33 C10 32.34 10 31.68 10 31 C6.7 30.01 3.4 29.02 0 28 C-2.92958113 18.51823743 -3.29741554 10.6939729 -1 1 C-0.67 0.67 -0.34 0.34 0 0 Z " fill="#92141C" transform="translate(40,110)"/>
<path d="M0 0 C1.32 0 2.64 0 4 0 C4 2.64 4 5.28 4 8 C3.36191406 8.06058594 2.72382812 8.12117188 2.06640625 8.18359375 C1.24011719 8.26738281 0.41382813 8.35117187 -0.4375 8.4375 C-1.67306641 8.55931641 -1.67306641 8.55931641 -2.93359375 8.68359375 C-4.98662025 8.78930815 -4.98662025 8.78930815 -6 10 C-7.39432686 10.09899441 -8.79357106 10.13079563 -10.19140625 10.1328125 C-11.48594727 10.13474609 -11.48594727 10.13474609 -12.80664062 10.13671875 C-13.71607422 10.13285156 -14.62550781 10.12898438 -15.5625 10.125 C-16.44486328 10.12886719 -17.32722656 10.13273437 -18.23632812 10.13671875 C-22.4082312 10.13055186 -26.45444577 10.00371507 -30.58984375 9.4296875 C-31.71519531 9.28789062 -32.84054687 9.14609375 -34 9 C-34.33 9.33 -34.66 9.66 -35 10 C-36.99958364 10.04080783 -39.00045254 10.04254356 -41 10 C-41.33 8.68 -41.66 7.36 -42 6 C-41.00419922 5.90912109 -41.00419922 5.90912109 -39.98828125 5.81640625 C-34.48712139 5.31309578 -34.48712139 5.31309578 -29.0625 4.3125 C-27 4 -27 4 -24 6 C-16.14915071 6.91001986 -7.83844352 5.63249688 0 5 C0 3.35 0 1.7 0 0 Z " fill="#D4ACAE" transform="translate(621,279)"/>
<path d="M0 0 C0 0.66 0 1.32 0 2 C2.31 2 4.62 2 7 2 C7 3.32 7 4.64 7 6 C2.85463259 6.19890186 -1.29129222 6.38203636 -5.4375 6.5625 C-6.60216797 6.61857422 -7.76683594 6.67464844 -8.96679688 6.73242188 C-15.45545438 7.0065905 -21.56950225 6.92846759 -28 6 C-28 5.01 -28 4.02 -28 3 C-26.700625 3.020625 -25.40125 3.04125 -24.0625 3.0625 C-22.70834367 3.08399454 -21.35243917 3.07148199 -20 3 C-19.67 2.67 -19.34 2.34 -19 2 C-16.32461486 1.95753357 -13.67290614 1.95080541 -11 2 C-8.71383216 2.09157371 -8.71383216 2.09157371 -5.5 1 C-2 0 -2 0 0 0 Z " fill="#D1A8AB" transform="translate(375,282)"/>
<path d="M0 0 C11.7812416 -0.35640731 23.30024254 0.74059296 35 2 C35 2.66 35 3.32 35 4 C22.98181423 4.86173931 11.04753921 5.11902069 -1 5 C-0.67 3.35 -0.34 1.7 0 0 Z " fill="#DDBDBC" transform="translate(428,59)"/>
<path d="M0 0 C0.33 0 0.66 0 1 0 C1.2325602 4.39494061 1.37450074 8.78830286 1.5 13.1875 C1.60054687 15.05631836 1.60054687 15.05631836 1.703125 16.96289062 C1.89742737 26.02223841 1.89742737 26.02223841 -0.81640625 28.97900391 C-2.84495892 30.24684932 -4.74638221 31.20888361 -7 32 C-7.33 31.34 -7.66 30.68 -8 30 C-10.31 30.33 -12.62 30.66 -15 31 C-15.495 32.485 -15.495 32.485 -16 34 C-16.99 34 -17.98 34 -19 34 C-19 39.28 -19 44.56 -19 50 C-19.66 49.67 -20.32 49.34 -21 49 C-21.05441656 47.10448978 -21.09298035 45.2085208 -21.125 43.3125 C-21.14820313 42.25675781 -21.17140625 41.20101562 -21.1953125 40.11328125 C-20.93848623 36.01947044 -20.17618412 33.25385665 -17.34375 30.234375 C-16.7353125 29.74453125 -16.126875 29.2546875 -15.5 28.75 C-14.58734375 27.99976563 -14.58734375 27.99976563 -13.65625 27.234375 C-8.81687414 23.62767035 -7.9343531 25 0 25 C0 16.75 0 8.5 0 0 Z " fill="#9C262C" transform="translate(672,41)"/>
<path d="M0 0 C0.79792969 0.00386719 1.59585938 0.00773437 2.41796875 0.01171875 C3.61486328 0.00591797 3.61486328 0.00591797 4.8359375 0 C10.79136108 0.01011108 10.79136108 0.01011108 11.91796875 1.13671875 C14.58855726 1.27787036 17.24229113 1.17918982 19.91796875 1.13671875 C19.58796875 2.12671875 19.25796875 3.11671875 18.91796875 4.13671875 C18.10529541 4.13148193 17.29262207 4.12624512 16.45532227 4.12084961 C12.79704553 4.10014881 9.13878108 4.08708072 5.48046875 4.07421875 C4.20107422 4.06583984 2.92167969 4.05746094 1.60351562 4.04882812 C0.38857422 4.04560547 -0.82636719 4.04238281 -2.078125 4.0390625 C-3.20404053 4.03382568 -4.32995605 4.02858887 -5.48999023 4.02319336 C-8.01173996 3.84126427 -8.01173996 3.84126427 -9.08203125 5.13671875 C-11.41500558 5.17764812 -13.7490835 5.17913598 -16.08203125 5.13671875 C-16.08203125 3.81671875 -16.08203125 2.49671875 -16.08203125 1.13671875 C-15.44394531 1.14832031 -14.80585937 1.15992188 -14.1484375 1.171875 C-13.32214844 1.18089844 -12.49585937 1.18992187 -11.64453125 1.19921875 C-10.40896484 1.21662109 -10.40896484 1.21662109 -9.1484375 1.234375 C-6.09220263 1.08994046 -3.45081149 0.00585876 0 0 Z " fill="#CCA4A5" transform="translate(131.08203125,283.86328125)"/>
<path d="M0 0 C1.32 0 2.64 0 4 0 C4.02690104 2.79173055 4.04679053 5.58320348 4.0625 8.375 C4.07087891 9.1690625 4.07925781 9.963125 4.08789062 10.78125 C4.11328125 16.7734375 4.11328125 16.7734375 3 19 C2.9310528 20.37342831 2.91532292 21.75002102 2.9375 23.125 C2.958125 24.40375 2.97875 25.6825 3 27 C1.68 26.67 0.36 26.34 -1 26 C-1.02886751 21.85418113 -1.04675327 17.70838784 -1.0625 13.5625 C-1.07087891 12.37849609 -1.07925781 11.19449219 -1.08789062 9.97460938 C-1.09111328 8.84990234 -1.09433594 7.72519531 -1.09765625 6.56640625 C-1.10289307 5.52427979 -1.10812988 4.48215332 -1.11352539 3.40844727 C-1 1 -1 1 0 0 Z " fill="#E4C2C3" transform="translate(622,105)"/>
<path d="M0 0 C5.28 0.33 10.56 0.66 16 1 C18.99556947 18.97341682 18.99556947 18.97341682 15 24.875 C14.34 25.57625 13.68 26.2775 13 27 C10 26 10 26 8 24 C9.65 24 11.3 24 13 24 C13 17.07 13 10.14 13 3 C10.36 3 7.72 3 5 3 C2 2 2 2 0 1 C0 0.67 0 0.34 0 0 Z " fill="#951C23" transform="translate(659,98)"/>
<path d="M0 0 C0.82242188 0.00451172 1.64484375 0.00902344 2.4921875 0.01367188 C4.49482396 0.02531511 6.49742227 0.04324444 8.5 0.0625 C8.5 1.3825 8.5 2.7025 8.5 4.0625 C-0.16996704 5.22961095 -8.77369392 5.15994014 -17.5 5.0625 C-17.5 3.7425 -17.5 2.4225 -17.5 1.0625 C-11.61599345 0.20554033 -5.94090708 -0.06289234 0 0 Z " fill="#D5B2B1" transform="translate(115.5,58.9375)"/>
<path d="M0 0 C1.89669927 0.06050077 3.79250333 0.14942117 5.6875 0.25 C6.74324219 0.29640625 7.79898438 0.3428125 8.88671875 0.390625 C12.72347597 1.14160885 14.40905731 2.06613843 17 5 C17.48828125 8.453125 17.48828125 8.453125 17.3125 12.25 C17.24482422 14.14492188 17.24482422 14.14492188 17.17578125 16.078125 C17.11777344 17.04234375 17.05976562 18.0065625 17 19 C16.67 19 16.34 19 16 19 C15.67 26.26 15.34 33.52 15 41 C14.67 41 14.34 41 14 41 C14 29.45 14 17.9 14 6 C11.03 5.67 8.06 5.34 5 5 C1.9375 2.4375 1.9375 2.4375 0 0 Z " fill="#A03137" transform="translate(658,264)"/>
<path d="M0 0 C0.33 1.32 0.66 2.64 1 4 C-3.11246888 7.93366588 -5.62166398 7.582592 -12 9 C-11.67 15.93 -11.34 22.86 -11 30 C-9.02 30.33 -7.04 30.66 -5 31 C-5 31.99 -5 32.98 -5 34 C-7.97 33.67 -10.94 33.34 -14 33 C-14 24.42 -14 15.84 -14 7 C-11.03 6.01 -8.06 5.02 -5 4 C-2.03574233 1.98399619 -2.03574233 1.98399619 0 0 Z " fill="#EFC9CA" transform="translate(55,103)"/>
<path d="M0 0 C0.33 0 0.66 0 1 0 C1 9.9 1 19.8 1 30 C2.98 30 4.96 30 7 30 C9.484375 31.4609375 9.484375 31.4609375 11.75 33.375 C12.50796875 34.00148437 13.2659375 34.62796875 14.046875 35.2734375 C18.46530371 39.17932848 18.44095666 41.22321881 19 47 C17 45 17 45 16.0625 43 C15.03213141 40.67868591 15.03213141 40.67868591 12 39 C12.33 38.34 12.66 37.68 13 37 C12.01 37 11.02 37 10 37 C10 36.34 10 35.68 10 35 C8.35 34.67 6.7 34.34 5 34 C5 33.34 5 32.68 5 32 C4.195625 31.855625 3.39125 31.71125 2.5625 31.5625 C0 31 0 31 -1 30 C-1.71682605 20.09093408 -0.57464838 9.90242295 0 0 Z " fill="#92292E" transform="translate(40,41)"/>
<path d="M0 0 C0.99 0 1.98 0 3 0 C3 11.88 3 23.76 3 36 C2.01 36 1.02 36 0 36 C0 24.12 0 12.24 0 0 Z " fill="#CFA3A5" transform="translate(87,121)"/>
<path d="M0 0 C0.33 0 0.66 0 1 0 C1 9.24 1 18.48 1 28 C-0.32 28.33 -1.64 28.66 -3 29 C-3.33 29.99 -3.66 30.98 -4 32 C-4.886875 31.896875 -5.77375 31.79375 -6.6875 31.6875 C-11.05972938 32.09997447 -12.23558452 33.69805929 -15 37 C-17.29633824 40.44450737 -17.54016485 42.93812283 -18 47 C-18.33 47 -18.66 47 -19 47 C-19.67624785 41.59001717 -19.4849747 38.00712672 -16.125 33.5625 C-10.6475811 27.01341218 -10.8044071 27.98221883 0 27 C0 18.09 0 9.18 0 0 Z " fill="#9B2C31" transform="translate(672,211)"/>
<path d="M0 0 C0.66 0 1.32 0 2 0 C2.44214844 0.48210937 2.88429688 0.96421875 3.33984375 1.4609375 C5.45189197 3.41893043 6.72458981 3.44733841 9.5625 3.625 C13.84 3.92 13.84 3.92 16 5 C16 12.59 16 20.18 16 28 C12.37 28.33 8.74 28.66 5 29 C3.02 29.99 3.02 29.99 1 31 C3.625 27.125 3.625 27.125 7 26 C9.64 26 12.28 26 15 26 C15 20.39 15 14.78 15 9 C12.69 8.67 10.38 8.34 8 8 C5.8203125 6.9140625 5.8203125 6.9140625 4.125 5.625 C3.55007813 5.20476562 2.97515625 4.78453125 2.3828125 4.3515625 C1 3 1 3 0 0 Z " fill="#993236" transform="translate(657,151)"/>
<path d="M0 0 C1.32 0 2.64 0 4 0 C4.19386492 2.64551056 4.38038267 5.29117783 4.5625 7.9375 C4.61857422 8.69224609 4.67464844 9.44699219 4.73242188 10.22460938 C4.86176157 12.14745958 4.93516912 14.07389548 5 16 C4.67 16.33 4.34 16.66 4 17 C3.76807135 18.51469448 3.58784762 20.03754562 3.4375 21.5625 C3.35371094 22.38878906 3.26992188 23.21507812 3.18359375 24.06640625 C3.12300781 24.70449219 3.06242188 25.34257812 3 26 C2.01 26 1.02 26 0 26 C0 17.42 0 8.84 0 0 Z " fill="#FCEAEA" transform="translate(622,154)"/>
<path d="M0 0 C0.33 1.32 0.66 2.64 1 4 C-4.61 4 -10.22 4 -16 4 C-16 3.01 -16 2.02 -16 1 C-16.99 1 -17.98 1 -19 1 C-19 1.66 -19 2.32 -19 3 C-21.31 3 -23.62 3 -26 3 C-26 2.01 -26 1.02 -26 0 C-17.40104632 -1.56344612 -8.59895368 -1.56344612 0 0 Z " fill="#E2C3C4" transform="translate(414,60)"/>
<path d="M0 0 C0.99 0.33 1.98 0.66 3 1 C2.030625 1.70125 1.06125 2.4025 0.0625 3.125 C-2.55157225 5.27161462 -2.96258406 5.85835394 -3.875 9.3125 C-3.91625 10.199375 -3.9575 11.08625 -4 12 C-3.34 12 -2.68 12 -2 12 C-2 14.64 -2 17.28 -2 20 C-0.68 20.33 0.64 20.66 2 21 C2 21.66 2 22.32 2 23 C-4.40096618 22.63768116 -4.40096618 22.63768116 -6.9375 19.9375 C-8.3073817 16.15018001 -8.91255 12.92324646 -8 9 C-5.98128153 5.43174533 -3.73227814 1.86613907 0 0 Z " fill="#95040A" transform="translate(662,242)"/>
<path d="M0 0 C3.84037498 5.12049998 4.15805215 7.62623936 4.125 13.8125 C4.12886719 14.52470703 4.13273438 15.23691406 4.13671875 15.97070312 C4.12965948 19.78623757 3.85738964 23.28679372 3 27 C2.84170819 28.39447544 2.69492033 29.79033039 2.5625 31.1875 C2 35 2 35 0 37 C0 24.79 0 12.58 0 0 Z " fill="#92040D" transform="translate(673,270)"/>
<path d="M0 0 C0.71285156 0.144375 1.42570312 0.28875 2.16015625 0.4375 C7.53773843 1.4797232 12.52360792 2.2433952 18 2 C18 3.32 18 4.64 18 6 C15.39619004 6.19476139 12.79224467 6.38108614 10.1875 6.5625 C9.44951172 6.61857422 8.71152344 6.67464844 7.95117188 6.73242188 C4.63211484 6.95769724 2.18767436 7.06255812 -1 6 C-1 5.01 -1 4.02 -1 3 C-3.31 3 -5.62 3 -8 3 C-8 2.67 -8 2.34 -8 2 C-5.36 2 -2.72 2 0 2 C0 1.34 0 0.68 0 0 Z " fill="#F8DEDE" transform="translate(316,282)"/>
<path d="M0 0 C2.31 0 4.62 0 7 0 C7 0.66 7 1.32 7 2 C5.35 2 3.7 2 2 2 C2 10.58 2 19.16 2 28 C1.01 28 0.02 28 -1 28 C-1.02891949 23.70834738 -1.04677118 19.41671964 -1.0625 15.125 C-1.07087891 13.90167969 -1.07925781 12.67835937 -1.08789062 11.41796875 C-1.09111328 10.25136719 -1.09433594 9.08476563 -1.09765625 7.8828125 C-1.10289307 6.80402832 -1.10812988 5.72524414 -1.11352539 4.61376953 C-1 2 -1 2 0 0 Z " fill="#C08F90" transform="translate(88,61)"/>
<path d="M0 0 C0.99 0.33 1.98 0.66 3 1 C2.50628906 1.55429688 2.01257813 2.10859375 1.50390625 2.6796875 C0.86324219 3.40414062 0.22257813 4.12859375 -0.4375 4.875 C-1.07558594 5.59429687 -1.71367188 6.31359375 -2.37109375 7.0546875 C-5.12209967 10.34006147 -5.14147127 12.67398987 -5.23046875 16.9296875 C-4.94396955 19.50332436 -4.51851644 20.88013375 -3 23 C-0.15381712 24.56909296 -0.15381712 24.56909296 3.125 25.75 C4.22070312 26.17796875 5.31640625 26.6059375 6.4453125 27.046875 C7.28835938 27.36140625 8.13140625 27.6759375 9 28 C9 28.33 9 28.66 9 29 C-1.74603587 29.1791006 -1.74603587 29.1791006 -5.09375 26.03125 C-7.72915785 21.84051949 -7.44847504 18.52342062 -7.25 13.6875 C-7.23195313 12.85154297 -7.21390625 12.01558594 -7.1953125 11.15429688 C-7.14841126 9.10236772 -7.07667411 7.05103244 -7 5 C-6.01 4.67 -5.02 4.34 -4 4 C-2.62804426 2.70644173 -1.28817344 1.37701298 0 0 Z " fill="#93040C" transform="translate(660,70)"/>
<path d="M0 0 C0 0.33 0 0.66 0 1 C-1.98 1 -3.96 1 -6 1 C-6 1.66 -6 2.32 -6 3 C-4.02 3 -2.04 3 0 3 C0 3.33 0 3.66 0 4 C-3.63 4 -7.26 4 -11 4 C-11.33 4.66 -11.66 5.32 -12 6 C-12.825 5.67 -13.65 5.34 -14.5 5 C-18.5873983 3.83217191 -21.76923344 3.8541115 -26 4 C-26 3.01 -26 2.02 -26 1 C-8.14350797 -1.48063781 -8.14350797 -1.48063781 0 0 Z " fill="#FCE6E5" transform="translate(617,60)"/>
<path d="M0 0 C0.33 0 0.66 0 1 0 C1 6.27 1 12.54 1 19 C3.97 19.33 6.94 19.66 10 20 C13.19626998 21.4777935 15.6414398 23.38272018 18 26 C19 29.375 19 29.375 19 32 C18.34 32 17.68 32 17 32 C16.67 33.32 16.34 34.64 16 36 C15.86722656 35.38511719 15.73445313 34.77023438 15.59765625 34.13671875 C15.42105469 33.32847656 15.24445312 32.52023438 15.0625 31.6875 C14.88847656 30.88699219 14.71445312 30.08648437 14.53515625 29.26171875 C14.00113841 26.854599 14.00113841 26.854599 13 24 C9.97717357 22.96452953 9.97717357 22.96452953 6.4375 22.3125 C3.2509375 21.6628125 3.2509375 21.6628125 0 21 C0 14.07 0 7.14 0 0 Z " fill="#8F282C" transform="translate(40,166)"/>
<path d="M0 0 C0.33 1.32 0.66 2.64 1 4 C0.34 4 -0.32 4 -1 4 C-1.0825 4.598125 -1.165 5.19625 -1.25 5.8125 C-2.24526926 8.71536869 -3.376444 9.44004778 -6 11 C-7.98 11.66 -9.96 12.32 -12 13 C-12.33 17.29 -12.66 21.58 -13 26 C-11.68 26 -10.36 26 -9 26 C-9 26.66 -9 27.32 -9 28 C-10.98 28 -12.96 28 -15 28 C-15 21.73 -15 15.46 -15 9 C-12.49348958 8.25130208 -9.98697917 7.50260417 -7.48046875 6.75390625 C-5.64526945 6.19612127 -3.81966274 5.60655425 -2 5 C-0.78130071 2.49552484 -0.78130071 2.49552484 0 0 Z " fill="#F4D3D4" transform="translate(56,157)"/>
<path d="M0 0 C2.62506802 -0.02690844 5.24986173 -0.04679404 7.875 -0.0625 C8.62136719 -0.07087891 9.36773437 -0.07925781 10.13671875 -0.08789062 C15.7734375 -0.11328125 15.7734375 -0.11328125 18 1 C19.37342831 1.0689472 20.75002102 1.08467708 22.125 1.0625 C24.043125 1.0315625 24.043125 1.0315625 26 1 C26 1.99 26 2.98 26 4 C22.4175621 4.22624982 18.83414899 4.42787181 15.25 4.625 C14.23421875 4.68945312 13.2184375 4.75390625 12.171875 4.8203125 C10.70234375 4.89765625 10.70234375 4.89765625 9.203125 4.9765625 C8.30239258 5.02893066 7.40166016 5.08129883 6.47363281 5.13525391 C3.81083053 4.98965654 2.26927521 4.35693395 0 3 C0 2.01 0 1.02 0 0 Z " fill="#D0AAAB" transform="translate(195,60)"/>
<path d="M0 0 C6.57692308 0.57692308 6.57692308 0.57692308 8 2 C10.67058851 2.14115161 13.32432238 2.04247107 16 2 C16 2.99 16 3.98 16 5 C7.42 5 -1.16 5 -10 5 C-10 4.01 -10 3.02 -10 2 C-8.72125 2.04125 -7.4425 2.0825 -6.125 2.125 C-3.98128508 2.24212873 -3.98128508 2.24212873 -2 2 C-1.34 1.34 -0.68 0.68 0 0 Z " fill="#C7999E" transform="translate(473,283)"/>
<path d="M0 0 C0 1.32 0 2.64 0 4 C-8.58 4 -17.16 4 -26 4 C-26 3.01 -26 2.02 -26 1 C-22.9792807 0.83100871 -19.95845177 0.66473871 -16.9375 0.5 C-16.08994141 0.45230469 -15.24238281 0.40460937 -14.36914062 0.35546875 C-9.57055312 0.09608564 -4.80550212 -0.05216285 0 0 Z " fill="#D2ADAD" transform="translate(298,60)"/>
<path d="M0 0 C1.3609623 2.7219246 0.70366248 4.1831957 0.0625 7.125 C-0.13214844 8.03507813 -0.32679688 8.94515625 -0.52734375 9.8828125 C-0.68332031 10.58148438 -0.83929687 11.28015625 -1 12 C-0.34 12 0.32 12 1 12 C1.268125 13.134375 1.53625 14.26875 1.8125 15.4375 C2.4003125 17.2009375 2.4003125 17.2009375 3 19 C3.99 19.33 4.98 19.66 6 20 C6 20.66 6 21.32 6 22 C6.61488281 22.03738281 7.22976563 22.07476562 7.86328125 22.11328125 C8.67152344 22.17902344 9.47976563 22.24476563 10.3125 22.3125 C11.11300781 22.37050781 11.91351562 22.42851562 12.73828125 22.48828125 C15.36272334 23.08206694 16.30820672 23.95780294 18 26 C12.80650904 26.46187173 9.1726667 26.71662965 4.625 23.9375 C-0.99899793 17.64397851 -2.4526523 13.80990501 -2.3359375 5.453125 C-2 3 -2 3 0 0 Z " fill="#954144" transform="translate(654,185)"/>
<path d="M0 0 C2.83339965 -0.02724423 5.66653117 -0.04695589 8.5 -0.0625 C9.29148437 -0.07087891 10.08296875 -0.07925781 10.8984375 -0.08789062 C16.02761717 -0.10891185 20.92336106 0.26062713 26 1 C26 1.66 26 2.32 26 3 C19.25 3.125 19.25 3.125 17 2 C17 2.66 17 3.32 17 4 C11.39 4 5.78 4 0 4 C0 2.68 0 1.36 0 0 Z " fill="#C9A0A1" transform="translate(301,60)"/>
<path d="M0 0 C0.556875 0.268125 1.11375 0.53625 1.6875 0.8125 C0.39784824 2.18812854 -0.93939293 3.52016393 -2.3125 4.8125 C-2.9725 4.8125 -3.6325 4.8125 -4.3125 4.8125 C-4.9725 6.4625 -5.6325 8.1125 -6.3125 9.8125 C-6.9725 9.8125 -7.6325 9.8125 -8.3125 9.8125 C-8.33971176 11.70825251 -8.35899136 13.60411979 -8.375 15.5 C-8.38660156 16.55574219 -8.39820313 17.61148438 -8.41015625 18.69921875 C-8.32115425 21.53660262 -7.96189838 24.0563919 -7.3125 26.8125 C-7.9725 27.1425 -8.6325 27.4725 -9.3125 27.8125 C-11.89262642 22.18782441 -11.98341552 16.90872001 -11.3125 10.8125 C-9.625 7.375 -9.625 7.375 -7.3125 4.8125 C-6.4875 3.843125 -5.6625 2.87375 -4.8125 1.875 C-2.3125 -0.1875 -2.3125 -0.1875 0 0 Z " fill="#891F22" transform="translate(665.3125,123.1875)"/>
<path d="M0 0 C0.99 0 1.98 0 3 0 C3 8.58 3 17.16 3 26 C2.01 26 1.02 26 0 26 C0 17.42 0 8.84 0 0 Z " fill="#BF9294" transform="translate(87,227)"/>
<path d="M0 0 C0.99 0 1.98 0 3 0 C3 8.58 3 17.16 3 26 C2.01 26 1.02 26 0 26 C0 17.33333333 0 8.66666667 0 0 Z " fill="#C7999A" transform="translate(87,179)"/>
<path d="M0 0 C0 0.33 0 0.66 0 1 C-1.8253125 1.309375 -1.8253125 1.309375 -3.6875 1.625 C-7.39095735 2.58539924 -9.8294479 3.89736491 -12.1640625 7.09375 C-14.55020643 12.53505017 -13.18253844 19.38294242 -12 25 C-13.5 23.75 -13.5 23.75 -15 22 C-15 20.68 -15 19.36 -15 18 C-15.66 18 -16.32 18 -17 18 C-16.37963307 6.98313897 -16.37963307 6.98313897 -13 3 C-8.75003492 -0.52139964 -5.28127753 -0.26853954 0 0 Z " fill="#8D060C" transform="translate(670,179)"/>
<path d="M0 0 C12.87 0.495 12.87 0.495 26 1 C26 1.99 26 2.98 26 4 C20.2308148 4.87483546 15.5642271 5.1843262 9.9609375 3.48046875 C6.62998025 2.66431787 3.41275253 2.87811598 0 3 C0 2.01 0 1.02 0 0 Z " fill="#C09696" transform="translate(514,60)"/>
<path d="M0 0 C8.25 0 16.5 0 25 0 C25 0.99 25 1.98 25 3 C16.75 3 8.5 3 0 3 C0 2.01 0 1.02 0 0 Z " fill="#CCA2A4" transform="translate(87,285)"/>
<path d="M0 0 C1.65 0 3.3 0 5 0 C4.67 5.61 4.34 11.22 4 17 C3.01 17 2.02 17 1 17 C0.67 11.39 0.34 5.78 0 0 Z " fill="#FAE8E6" transform="translate(621,231)"/>
<path d="M0 0 C-1.65 0.33 -3.3 0.66 -5 1 C-5 8.59 -5 16.18 -5 24 C-5.66 23.67 -6.32 23.34 -7 23 C-7.37890625 20.671875 -7.37890625 20.671875 -7.5625 17.75 C-7.75321268 14.86984937 -7.95606433 12.18926135 -8.609375 9.375 C-9.21733453 5.67860605 -7.68244242 3.24025948 -6 0 C-3.50907189 -1.24546405 -2.58919267 -0.7767578 0 0 Z " fill="#93141C" transform="translate(46,215)"/>
<path d="M0 0 C0.33 0 0.66 0 1 0 C0.710607 4.82321672 -0.06892979 8.02586719 -3.40625 11.64453125 C-7.56226743 15.17918333 -11.55649658 17 -17 17 C-16 14 -16 14 -13.1875 12.3125 C-10 11 -10 11 -6 11 C-6 10.34 -6 9.68 -6 9 C-5.01 9 -4.02 9 -3 9 C-2.87625 7.88625 -2.7525 6.7725 -2.625 5.625 C-2 2 -2 2 0 0 Z " fill="#8B141B" transform="translate(58,93)"/>
<path d="M0 0 C8.72630608 -0.09744014 17.33003296 -0.16711095 26 1 C26 1.66 26 2.32 26 3 C23.22949974 3.1946838 20.45886998 3.38102792 17.6875 3.5625 C16.90181641 3.61857422 16.11613281 3.67464844 15.30664062 3.73242188 C14.1706543 3.80493164 14.1706543 3.80493164 13.01171875 3.87890625 C12.31522217 3.9260376 11.61872559 3.97316895 10.90112305 4.02172852 C9 4 9 4 6 3 C6 2.34 6 1.68 6 1 C4.02 1 2.04 1 0 1 C0 0.67 0 0.34 0 0 Z " fill="#D5B2B2" transform="translate(437,60)"/>
<path d="M0 0 C2.31 0 4.62 0 7 0 C7 1.65 7 3.3 7 5 C6.06027344 4.98259766 6.06027344 4.98259766 5.1015625 4.96484375 C3.87566406 4.95130859 3.87566406 4.95130859 2.625 4.9375 C1.40683594 4.92009766 1.40683594 4.92009766 0.1640625 4.90234375 C-2.04937142 4.85533666 -2.04937142 4.85533666 -4 6 C-6.00800456 5.71887936 -8.01014051 5.38932033 -10 5 C-10 4.01 -10 3.02 -10 2 C-6.7 2 -3.4 2 0 2 C0 1.34 0 0.68 0 0 Z " fill="#DCB9B9" transform="translate(137,59)"/>
<path d="M0 0 C-5.625 3.875 -5.625 3.875 -9 5 C-9.33 5.99 -9.66 6.98 -10 8 C-10.99 8 -11.98 8 -13 8 C-13 13.28 -13 18.56 -13 24 C-13.66 23.67 -14.32 23.34 -15 23 C-15.05441656 21.10448978 -15.09298035 19.2085208 -15.125 17.3125 C-15.14820313 16.25675781 -15.17140625 15.20101562 -15.1953125 14.11328125 C-14.93848623 10.01947044 -14.17618412 7.25385665 -11.34375 4.234375 C-10.7353125 3.74453125 -10.126875 3.2546875 -9.5 2.75 C-8.58734375 1.99976562 -8.58734375 1.99976562 -7.65625 1.234375 C-4.67822863 -0.98509376 -3.50345878 -1.05103764 0 0 Z " fill="#903439" transform="translate(666,67)"/>
<path d="M0 0 C-0.625 1.875 -0.625 1.875 -2 4 C-6.07440842 5.86005602 -7.56319718 6.1092007 -12 5 C-12 11.27 -12 17.54 -12 24 C-10.35 24 -8.7 24 -7 24 C-6.67 24.66 -6.34 25.32 -6 26 C-8.31 25.67 -10.62 25.34 -13 25 C-13 17.74 -13 10.48 -13 3 C-10.03 2.34 -7.06 1.68 -4 1 C-2 0 -2 0 0 0 Z " fill="#E8AFB2" transform="translate(54,214)"/>
<path d="M0 0 C2.05078125 0.03255208 4.1015625 0.06510417 6.15234375 0.09765625 C5.82234375 1.41765625 5.49234375 2.73765625 5.15234375 4.09765625 C-0.75913065 4.8707867 -5.97911545 5.24584902 -11.84765625 4.09765625 C-11.84765625 3.10765625 -11.84765625 2.11765625 -11.84765625 1.09765625 C-11.20957031 1.10925781 -10.57148438 1.12085938 -9.9140625 1.1328125 C-9.08777344 1.14183594 -8.26148438 1.15085937 -7.41015625 1.16015625 C-6.17458984 1.17755859 -6.17458984 1.17755859 -4.9140625 1.1953125 C-2.49537536 1.08100781 -2.34533735 0.12396075 0 0 Z " fill="#D2ADAF" transform="translate(454.84765625,283.90234375)"/>
<path d="M0 0 C5.61 0 11.22 0 17 0 C16.67 0.99 16.34 1.98 16 3 C11.05 3.33 6.1 3.66 1 4 C0.67 2.68 0.34 1.36 0 0 Z " fill="#D0A8AA" transform="translate(163,285)"/>
<path d="M0 0 C5.28 0 10.56 0 16 0 C16 0.99 16 1.98 16 3 C8.08 3.495 8.08 3.495 0 4 C0 2.68 0 1.36 0 0 Z " fill="#D0A9AB" transform="translate(241,285)"/>
<path d="M0 0 C1.32 0 2.64 0 4 0 C4 5.61 4 11.22 4 17 C3.67 17 3.34 17 3 17 C3 14.69 3 12.38 3 10 C1.68 9.67 0.36 9.34 -1 9 C-1.09765625 2.84765625 -1.09765625 2.84765625 -1 1 C-0.67 0.67 -0.34 0.34 0 0 Z " fill="#FAEAEA" transform="translate(622,105)"/>
<path d="M0 0 C0.33 0 0.66 0 1 0 C1 2.31 1 4.62 1 7 C1.99 7 2.98 7 4 7 C4 4.69 4 2.38 4 0 C4.33 0 4.66 0 5 0 C4.67 5.28 4.34 10.56 4 16 C2.68 16.33 1.36 16.66 0 17 C0 11.39 0 5.78 0 0 Z " fill="#FBEAE9" transform="translate(621,76)"/>
<path d="M0 0 C5.28 0 10.56 0 16 0 C16 0.99 16 1.98 16 3 C14.700625 2.979375 13.40125 2.95875 12.0625 2.9375 C10.70834367 2.91600546 9.35243917 2.92851801 8 3 C7.67 3.33 7.34 3.66 7 4 C4.66702567 4.04092937 2.33294775 4.04241723 0 4 C0 2.68 0 1.36 0 0 Z " fill="#D0A7A9" transform="translate(260,285)"/>
<path d="M0 0 C0 0.33 0 0.66 0 1 C-1.65 1 -3.3 1 -5 1 C-5 1.99 -5 2.98 -5 4 C-3.02 4 -1.04 4 1 4 C1 4.33 1 4.66 1 5 C-4.28 5 -9.56 5 -15 5 C-15 3.68 -15 2.36 -15 1 C-9.92928099 0.28832014 -5.11791642 -0.10662326 0 0 Z " fill="#E4C6C6" transform="translate(113,59)"/>
<path d="M0 0 C0 0.99 0 1.98 0 3 C-5.28 3 -10.56 3 -16 3 C-16 2.01 -16 1.02 -16 0 C-10.31302429 -0.91397824 -5.68697571 -0.91397824 0 0 Z " fill="#D0ABAB" transform="translate(356,60)"/>
<path d="M0 0 C5.61 0 11.22 0 17 0 C17 0.99 17 1.98 17 3 C11.0885256 3.77313045 5.8685408 4.14819277 0 3 C0 2.01 0 1.02 0 0 Z " fill="#CBA0A2" transform="translate(540,285)"/>
<path d="M0 0 C5.61 0 11.22 0 17 0 C17 0.99 17 1.98 17 3 C11.39 3 5.78 3 0 3 C0 2.01 0 1.02 0 0 Z " fill="#CAA0A2" transform="translate(501,285)"/>
<path d="M0 0 C0 0.66 0 1.32 0 2 C2.31 2 4.62 2 7 2 C7 3.32 7 4.64 7 6 C4.03 6 1.06 6 -2 6 C-2 5.01 -2 4.02 -2 3 C-4.31 3 -6.62 3 -9 3 C-9 2.67 -9 2.34 -9 2 C-2.25 0 -2.25 0 0 0 Z " fill="#E3C6C8" transform="translate(375,282)"/>
<path d="M0 0 C5.85243483 0.36577718 10.57752758 1.99820178 15 6 C15.7265625 8.16796875 15.7265625 8.16796875 16 10 C10.81298543 9.68563548 7.4052641 6.69966733 4 3 C4 2.34 4 1.68 4 1 C2.68 0.67 1.36 0.34 0 0 Z " fill="#8F2429" transform="translate(41,239)"/>
<path d="M0 0 C0.53625 0.268125 1.0725 0.53625 1.625 0.8125 C-0.375 3.8125 -0.375 3.8125 -3.8125 5.6875 C-7.21924692 7.57148063 -8.861092 9.11183601 -10.375 12.8125 C-10.59691266 14.22418533 -10.78275415 15.64188238 -10.9375 17.0625 C-11.081875 18.3 -11.22625 19.5375 -11.375 20.8125 C-12.035 21.1425 -12.695 21.4725 -13.375 21.8125 C-13.045 17.8525 -12.715 13.8925 -12.375 9.8125 C-11.715 9.8125 -11.055 9.8125 -10.375 9.8125 C-10.16875 9.090625 -9.9625 8.36875 -9.75 7.625 C-7.82770481 3.69303256 -4.79592 -0.37862526 0 0 Z " fill="#95040B" transform="translate(669.375,123.1875)"/>
<path d="M0 0 C0.99 0 1.98 0 3 0 C3 5.94 3 11.88 3 18 C2.01 17.67 1.02 17.34 0 17 C0 11.39 0 5.78 0 0 Z " fill="#C79A9D" transform="translate(87,92)"/>
<path d="M0 0 C1.4540625 0.0309375 1.4540625 0.0309375 2.9375 0.0625 C2.9375 1.3825 2.9375 2.7025 2.9375 4.0625 C-2.0125 4.0625 -6.9625 4.0625 -12.0625 4.0625 C-12.0625 3.0725 -12.0625 2.0825 -12.0625 1.0625 C-10.763125 1.083125 -9.46375 1.10375 -8.125 1.125 C-6.77084367 1.14649454 -5.41493917 1.13398199 -4.0625 1.0625 C-3.0625 0.0625 -3.0625 0.0625 0 0 Z " fill="#D0A8A9" transform="translate(507.0625,59.9375)"/>
<path d="M0 0 C0.99 0 1.98 0 3 0 C3 5.28 3 10.56 3 16 C2.01 16 1.02 16 0 16 C-0.71033431 10.47032059 -1.30267176 5.50016964 0 0 Z " fill="#C89C9E" transform="translate(87,160)"/>
<path d="M0 0 C0.33 0.99 0.66 1.98 1 3 C-4.61 3 -10.22 3 -16 3 C-16 2.01 -16 1.02 -16 0 C-10.31302429 -0.91397824 -5.68697571 -0.91397824 0 0 Z " fill="#CBA5A5" transform="translate(578,60)"/>
<path d="M0 0 C5.61 0 11.22 0 17 0 C17 0.99 17 1.98 17 3 C11.39 3 5.78 3 0 3 C0 2.01 0 1.02 0 0 Z " fill="#C89DA0" transform="translate(424,285)"/>
<path d="M0 0 C5.61 0 11.22 0 17 0 C16.67 0.99 16.34 1.98 16 3 C10.03654233 4.0006709 5.71271093 4.0662997 0 2 C0 1.34 0 0.68 0 0 Z " fill="#C89C9E" transform="translate(395,285)"/>
<path d="M0 0 C5.61 0 11.22 0 17 0 C16.67 0.99 16.34 1.98 16 3 C10.72 3 5.44 3 0 3 C0 2.01 0 1.02 0 0 Z " fill="#C89C9E" transform="translate(279,285)"/>
<path d="M0 0 C0 0.99 0 1.98 0 3 C-8.415 3.495 -8.415 3.495 -17 4 C-17 3.01 -17 2.02 -17 1 C-11.29014022 0.25983299 -5.75813575 -0.10469338 0 0 Z " fill="#C9A0A3" transform="translate(219,284)"/>
<path d="M0 0 C0.99 0 1.98 0 3 0 C3 5.61 3 11.22 3 17 C2.01 17 1.02 17 0 17 C0 11.39 0 5.78 0 0 Z " fill="#C59698" transform="translate(87,256)"/>
<path d="M0 0 C2.31 0 4.62 0 7 0 C7 0.66 7 1.32 7 2 C9.97 2 12.94 2 16 2 C16 2.66 16 3.32 16 4 C10.39 4 4.78 4 -1 4 C-0.67 2.68 -0.34 1.36 0 0 Z " fill="#CBA8A8" transform="translate(476,59)"/>
<path d="M0 0 C5.28 0 10.56 0 16 0 C16 0.99 16 1.98 16 3 C10.72 3 5.44 3 0 3 C0 2.01 0 1.02 0 0 Z " fill="#C89C9F" transform="translate(183,285)"/>
<path d="M0 0 C0.99 0.33 1.98 0.66 3 1 C2.50628906 1.40992188 2.01257813 1.81984375 1.50390625 2.2421875 C0.86324219 2.78101563 0.22257813 3.31984375 -0.4375 3.875 C-1.07558594 4.40867188 -1.71367188 4.94234375 -2.37109375 5.4921875 C-4.10805004 6.9222757 -4.10805004 6.9222757 -5 9 C-5.17218202 13.47673252 -4.85736786 17.60598974 -4 22 C-7.04496431 19.08742545 -7.91555459 17.69969053 -8.4375 13.375 C-8.40854547 8.09562328 -5.5490502 4.68696666 -2 1 C-1.34 0.67 -0.68 0.34 0 0 Z " fill="#8F050C" transform="translate(662,242)"/>
<path d="M0 0 C0.99 0 1.98 0 3 0 C3 5.28 3 10.56 3 16 C2.01 16 1.02 16 0 16 C0 10.72 0 5.44 0 0 Z " fill="#C59697" transform="translate(87,208)"/>
<path d="M0 0 C0.33 0.99 0.66 1.98 1 3 C-1.31 3 -3.62 3 -6 3 C-6 2.34 -6 1.68 -6 1 C-6.99 1 -7.98 1 -9 1 C-9 1.66 -9 2.32 -9 3 C-11.31 3 -13.62 3 -16 3 C-16 2.01 -16 1.02 -16 0 C-10.42289352 -1.06795656 -5.60563042 -0.82622671 0 0 Z " fill="#CAA2A3" transform="translate(404,60)"/>
<path d="M0 0 C5.28 0 10.56 0 16 0 C16 0.99 16 1.98 16 3 C10.72 3 5.44 3 0 3 C0 2.01 0 1.02 0 0 Z " fill="#C69A9F" transform="translate(560,285)"/>
<path d="M0 0 C0.66 0 1.32 0 2 0 C3.02319033 3.06957098 3.13371939 5.22440323 3.125 8.4375 C3.12886719 9.85869141 3.12886719 9.85869141 3.1328125 11.30859375 C3.01473475 13.70140459 2.68112635 15.71336153 2 18 C1.34 18 0.68 18 0 18 C0 12.06 0 6.12 0 0 Z " fill="#92040E" transform="translate(673,160)"/>
<path d="M0 0 C0.66 0 1.32 0 2 0 C2 1.32 2 2.64 2 4 C2.66 4 3.32 4 4 4 C4 5.32 4 6.64 4 8 C3.34 8 2.68 8 2 8 C1.7525 9.27875 1.505 10.5575 1.25 11.875 C0.26977612 15.77518657 0.26977612 15.77518657 -1.875 17.5625 C-4.27630511 18.05688635 -5.70778199 17.81864929 -8 17 C-7.05125 16.525625 -6.1025 16.05125 -5.125 15.5625 C-2.14948573 13.60455547 -1.39783101 11.94932665 -0.625 8.5 C-0.1114585 5.55972316 0 3.02054891 0 0 Z " fill="#93030B" transform="translate(53,145)"/>
<path d="M0 0 C5.61 0 11.22 0 17 0 C17 0.99 17 1.98 17 3 C11.555 3.495 11.555 3.495 6 4 C6 3.67 6 3.34 6 3 C3.03 2.505 3.03 2.505 0 2 C0 1.34 0 0.68 0 0 Z " fill="#C59C9D" transform="translate(221,285)"/>
<path d="M0 0 C5.28 0 10.56 0 16 0 C16 0.66 16 1.32 16 2 C14.3603125 1.9071875 14.3603125 1.9071875 12.6875 1.8125 C9.07873917 1.64402086 9.07873917 1.64402086 7.0625 3.5 C6.711875 3.995 6.36125 4.49 6 5 C4.02 4.34 2.04 3.68 0 3 C0 2.01 0 1.02 0 0 Z " fill="#CAA6A6" transform="translate(543,61)"/>
<path d="M0 0 C0.66 0 1.32 0 2 0 C1.72991214 3.87125927 1.24063252 5.70589359 -1.25 8.75 C-5.44334575 12.18091925 -8.59471937 13.30887318 -14 13 C-13.01 12.67 -12.02 12.34 -11 12 C-11 11.34 -11 10.68 -11 10 C-8.03 9.34 -5.06 8.68 -2 8 C-2.061875 6.8553125 -2.061875 6.8553125 -2.125 5.6875 C-2 3 -2 3 0 0 Z " fill="#80151A" transform="translate(55,153)"/>
<path d="M0 0 C6.15234375 -0.09765625 6.15234375 -0.09765625 8 0 C8.33 0.33 8.66 0.66 9 1 C11.67058851 1.14115161 14.32432238 1.04247107 17 1 C16.67 1.99 16.34 2.98 16 4 C11.05 4 6.1 4 1 4 C1 3.67 1 3.34 1 3 C2.98 3 4.96 3 7 3 C7 2.34 7 1.68 7 1 C4.69 1 2.38 1 0 1 C0 0.67 0 0.34 0 0 Z " fill="#DEB8BA" transform="translate(134,284)"/>
<path d="M0 0 C0.53109375 0.27585937 1.0621875 0.55171875 1.609375 0.8359375 C4.44583387 2.21708904 7.33419657 3.42064641 10.25 4.625 C11.32765625 5.07101563 12.4053125 5.51703125 13.515625 5.9765625 C14.74539063 6.48316406 14.74539063 6.48316406 16 7 C16 7.33 16 7.66 16 8 C6.4950495 8.15841584 6.4950495 8.15841584 4 7 C0 2.66666667 0 2.66666667 0 0 Z " fill="#8F050B" transform="translate(653,91)"/>
<path d="M0 0 C5.61 0 11.22 0 17 0 C17 0.66 17 1.32 17 2 C8.585 2.495 8.585 2.495 0 3 C0 2.01 0 1.02 0 0 Z " fill="#C59D9D" transform="translate(591,61)"/>
<path d="M0 0 C5.61 0 11.22 0 17 0 C17 0.99 17 1.98 17 3 C11.39 2.67 5.78 2.34 0 2 C0 1.34 0 0.68 0 0 Z " fill="#C69E9E" transform="translate(369,61)"/>
<path d="M0 0 C5.61 0 11.22 0 17 0 C17 0.66 17 1.32 17 2 C8.585 2.495 8.585 2.495 0 3 C0 2.01 0 1.02 0 0 Z " fill="#C69E9F" transform="translate(156,61)"/>
<path d="M0 0 C6.875 0.875 6.875 0.875 8 2 C10.67058851 2.14115161 13.32432238 2.04247107 16 2 C16 2.99 16 3.98 16 5 C12.7 5 9.4 5 6 5 C6 4.01 6 3.02 6 2 C4.02 2 2.04 2 0 2 C-0.33 2.66 -0.66 3.32 -1 4 C-0.67 2.68 -0.34 1.36 0 0 Z " fill="#DBB8BB" transform="translate(473,283)"/>
<path d="M0 0 C0 0.99 0 1.98 0 3 C-5.28 3 -10.56 3 -16 3 C-16 2.34 -16 1.68 -16 1 C-10.62915894 0.31798844 -5.41499441 -0.11521265 0 0 Z " fill="#C09598" transform="translate(334,284)"/>
<path d="M0 0 C5.28 0 10.56 0 16 0 C16 0.99 16 1.98 16 3 C10.72 2.67 5.44 2.34 0 2 C0 1.34 0 0.68 0 0 Z " fill="#C49B9B" transform="translate(224,61)"/>
<path d="M0 0 C2.3125 -0.25 2.3125 -0.25 5 0 C7.26523786 2.26523786 7.95684847 3.58804669 8.29296875 6.796875 C8.25816406 7.77140625 8.22335938 8.7459375 8.1875 9.75 C8.16042969 10.73484375 8.13335937 11.7196875 8.10546875 12.734375 C8.07066406 13.48203125 8.03585938 14.2296875 8 15 C7.67 15 7.34 15 7 15 C7 12.69 7 10.38 7 8 C6.34 8 5.68 8 5 8 C5 6.68 5 5.36 5 4 C4.34 4 3.68 4 3 4 C3 3.34 3 2.68 3 2 C2.01 2 1.02 2 0 2 C0 1.34 0 0.68 0 0 Z " fill="#963337" transform="translate(50,141)"/>
<path d="M0 0 C0.99 0 1.98 0 3 0 C2.67 5.28 2.34 10.56 2 16 C1.34 16 0.68 16 0 16 C0 10.72 0 5.44 0 0 Z " fill="#BA8C8D" transform="translate(87,121)"/>
<path d="M0 0 C0.66 0.33 1.32 0.66 2 1 C1.43410156 1.71285156 0.86820313 2.42570313 0.28515625 3.16015625 C-5.36550516 10.32920084 -5.36550516 10.32920084 -7 19 C-7.33 19 -7.66 19 -8 19 C-8.67624785 13.59001717 -8.4849747 10.00712672 -5.125 5.5625 C-3.48900507 3.60641911 -1.80378522 1.80378522 0 0 Z " fill="#9F5557" transform="translate(661,239)"/>
<path d="M0 0 C7.75 -0.125 7.75 -0.125 10 1 C10 1.66 10 2.32 10 3 C6.78548731 4.60725635 3.56387464 4.05748185 0 4 C0 2.68 0 1.36 0 0 Z " fill="#DAB6B7" transform="translate(301,60)"/>
<path d="M0 0 C6.0546875 -0.1953125 6.0546875 -0.1953125 8 0 C8.66 0.66 9.32 1.32 10 2 C12.32275177 2.40047444 14.65739357 2.7397104 17 3 C17 3.33 17 3.66 17 4 C11.39 3.67 5.78 3.34 0 3 C0 2.01 0 1.02 0 0 Z " fill="#DAB8BA" transform="translate(347,285)"/>
<path d="M0 0 C1.43861294 0.08746284 2.87597508 0.19565348 4.3125 0.3125 C5.11300781 0.37050781 5.91351562 0.42851562 6.73828125 0.48828125 C9 1 9 1 12 4 C8.7 4 5.4 4 2 4 C1.34 2.68 0.68 1.36 0 0 Z " fill="#942D31" transform="translate(660,207)"/>
<path d="M0 0 C3.3 0 6.6 0 10 0 C10 0.99 10 1.98 10 3 C4.47032059 3.71033431 -0.49983036 4.30267176 -6 3 C-6 2.67 -6 2.34 -6 2 C-4.02 2 -2.04 2 0 2 C0 1.34 0 0.68 0 0 Z " fill="#DAB7B8" transform="translate(530,61)"/>
<path d="M0 0 C1.32 0.33 2.64 0.66 4 1 C3.34 1.66 2.68 2.32 2 3 C1.62826984 5.6182767 1.62826984 5.6182767 1.5859375 8.6640625 C1.54726563 9.78554688 1.50859375 10.90703125 1.46875 12.0625 C1.4378125 13.238125 1.406875 14.41375 1.375 15.625 C1.33632813 16.80835938 1.29765625 17.99171875 1.2578125 19.2109375 C1.16331155 22.14046691 1.07775442 25.06998597 1 28 C0.67 28 0.34 28 0 28 C0 18.76 0 9.52 0 0 Z " fill="#FDEEEF" transform="translate(42,276)"/>
<path d="M0 0 C0.99 0 1.98 0 3 0 C3 5.28 3 10.56 3 16 C2.67 16 2.34 16 2 16 C2 14.02 2 12.04 2 10 C1.34 9.67 0.68 9.34 0 9 C0 6.03 0 3.06 0 0 Z " fill="#D0A1A4" transform="translate(87,227)"/>
<path d="M0 0 C0.66 0 1.32 0 2 0 C2.25 5.625 2.25 5.625 0 9 C-0.66 9 -1.32 9 -2 9 C-2.66 10.32 -3.32 11.64 -4 13 C-4 10.38154951 -3.73584009 8.45134189 -3.125 5.9375 C-2.88136719 4.89916016 -2.88136719 4.89916016 -2.6328125 3.83984375 C-2 2 -2 2 0 0 Z " fill="#8F070D" transform="translate(57,198)"/>
<path d="M0 0 C2.4375 0.625 2.4375 0.625 5 2 C5.8125 5.125 5.8125 5.125 6 8 C5.34 8 4.68 8 4 8 C3.67 9.32 3.34 10.64 3 12 C2.86722656 11.38511719 2.73445313 10.77023438 2.59765625 10.13671875 C2.42105469 9.32847656 2.24445312 8.52023438 2.0625 7.6875 C1.88847656 6.88699219 1.71445312 6.08648437 1.53515625 5.26171875 C1.00113841 2.854599 1.00113841 2.854599 0 0 Z " fill="#932126" transform="translate(53,190)"/>
<path d="M0 0 C3.3 0 6.6 0 10 0 C10 0.99 10 1.98 10 3 C4.72 3 -0.56 3 -6 3 C-6 2.67 -6 2.34 -6 2 C-4.02 2 -2.04 2 0 2 C0 1.34 0 0.68 0 0 Z " fill="#D8B5B6" transform="translate(211,61)"/>
<path d="M0 0 C1.98 0 3.96 0 6 0 C6.33 1.65 6.66 3.3 7 5 C4.69 5 2.38 5 0 5 C0 3.35 0 1.7 0 0 Z " fill="#DCB8B9" transform="translate(465,59)"/>
<path d="M0 0 C1.98 0 3.96 0 6 0 C6.33 1.65 6.66 3.3 7 5 C4.69 5 2.38 5 0 5 C0 3.35 0 1.7 0 0 Z " fill="#DBB7B7" transform="translate(146,59)"/>
<path d="M0 0 C0.66 1.32 1.32 2.64 2 4 C-5.74297753 10.27808989 -5.74297753 10.27808989 -12 10 C-9.33440687 8.22293791 -6.9719385 7.12451727 -4 6 C-4 5.34 -4 4.68 -4 4 C-2.68 4 -1.36 4 0 4 C0 2.68 0 1.36 0 0 Z " fill="#8B2427" transform="translate(53,266)"/>
<path d="M0 0 C-0.721875 0.268125 -1.44375 0.53625 -2.1875 0.8125 C-8.00168254 3.26737707 -11.17613207 6.08359838 -15 11 C-15.33 10.01 -15.66 9.02 -16 8 C-14.1428479 4.51104062 -11.51675238 1.67006251 -7.88671875 0.06640625 C-2.64575866 -1.32287933 -2.64575866 -1.32287933 0 0 Z " fill="#9C030B" transform="translate(672,180)"/>
<path d="M0 0 C2.97 0 5.94 0 9 0 C8.34 1.32 7.68 2.64 7 4 C5.02 4 3.04 4 1 4 C0.67 2.68 0.34 1.36 0 0 Z " fill="#D7B2B4" transform="translate(579,285)"/>
<path d="M0 0 C2.64 0 5.28 0 8 0 C8 0.99 8 1.98 8 3 C7 4 7 4 3.4375 4.0625 C2.303125 4.041875 1.16875 4.02125 0 4 C0 2.68 0 1.36 0 0 Z " fill="#D5B2B5" transform="translate(115,285)"/>
<path d="M0 0 C0.556875 0.268125 1.11375 0.53625 1.6875 0.8125 C0.39784824 2.18812854 -0.93939293 3.52016393 -2.3125 4.8125 C-2.9725 4.8125 -3.6325 4.8125 -4.3125 4.8125 C-4.6425 5.8025 -4.9725 6.7925 -5.3125 7.8125 C-7.375 8.5 -7.375 8.5 -9.3125 8.8125 C-7.66495848 4.76853446 -4.80734346 -0.3897846 0 0 Z " fill="#8E2E32" transform="translate(665.3125,123.1875)"/>
<path d="M0 0 C1.32 0 2.64 0 4 0 C4 2.64 4 5.28 4 8 C2.68 8 1.36 8 0 8 C0 5.36 0 2.72 0 0 Z " fill="#D3A9AB" transform="translate(86,111)"/>
<path d="M0 0 C2.64 0 5.28 0 8 0 C7.67 1.32 7.34 2.64 7 4 C4.69 4 2.38 4 0 4 C0 2.68 0 1.36 0 0 Z " fill="#D3AFB1" transform="translate(492,285)"/>
<path d="M0 0 C2.64 0 5.28 0 8 0 C7.67 1.32 7.34 2.64 7 4 C4.69 4 2.38 4 0 4 C0 2.68 0 1.36 0 0 Z " fill="#D4ACAF" transform="translate(385,284)"/>
<path d="M0 0 C0 1.32 0 2.64 0 4 C-2.31 4 -4.62 4 -7 4 C-7 2.68 -7 1.36 -7 0 C-4.3333581 -1.33332095 -2.83319697 -0.67102033 0 0 Z " fill="#D7AFB2" transform="translate(344,284)"/>
<path d="M0 0 C0 0.99 0 1.98 0 3 C-4.65537393 3.83796731 -8.37078475 4.0161692 -13 3 C-13 2.34 -13 1.68 -13 1 C-11.58366664 0.83052421 -10.16691467 0.66454493 -8.75 0.5 C-7.56664062 0.36078125 -7.56664062 0.36078125 -6.359375 0.21875 C-4 0 -4 0 0 0 Z " fill="#C1999A" transform="translate(624,60)"/>
<path d="M0 0 C3.41569282 4.5542571 3.41569282 4.5542571 3.375 8.5625 C3.38273437 9.32691406 3.39046875 10.09132813 3.3984375 10.87890625 C3 13 3 13 0 16 C0 10.72 0 5.44 0 0 Z " fill="#9B4549" transform="translate(57,249)"/>
<path d="M0 0 C0.33 0 0.66 0 1 0 C1.05441656 1.89551022 1.09298035 3.7914792 1.125 5.6875 C1.14820313 6.74324219 1.17140625 7.79898438 1.1953125 8.88671875 C0.99650046 12.05578267 0.46393224 14.19412988 -1 17 C-3.125 17.8125 -3.125 17.8125 -5 18 C-4.360625 17.071875 -3.72125 16.14375 -3.0625 15.1875 C-0.27927068 10.40781996 -0.1961176 5.42265163 0 0 Z " fill="#DBB1B2" transform="translate(59,196)"/>
<path d="M0 0 C0.33 0 0.66 0 1 0 C0.63118644 6.14689273 -0.90050429 8.69027374 -5 13 C-5.33 11.68 -5.66 10.36 -6 9 C-5.01 9 -4.02 9 -3 9 C-2.87625 7.88625 -2.7525 6.7725 -2.625 5.625 C-2 2 -2 2 0 0 Z " fill="#923337" transform="translate(58,93)"/>
<path d="M0 0 C0.99 0 1.98 0 3 0 C3 3.3 3 6.6 3 10 C2.01 10 1.02 10 0 10 C0 6.7 0 3.4 0 0 Z " fill="#CEA3A5" transform="translate(87,79)"/>
<path d="M0 0 C5.15171623 -0.09038099 9.91913204 0.15318867 15 1 C15 1.33 15 1.66 15 2 C13.02 2 11.04 2 9 2 C9 2.66 9 3.32 9 4 C8.01 4 7.02 4 6 4 C6 3.34 6 2.68 6 2 C3.69 2 1.38 2 -1 2 C-0.67 1.34 -0.34 0.68 0 0 Z " fill="#F6DFDD" transform="translate(486,59)"/>
<path d="M0 0 C2.64 0 5.28 0 8 0 C8 1.32 8 2.64 8 4 C5.69 4 3.38 4 1 4 C0.67 2.68 0.34 1.36 0 0 Z " fill="#D6B4B4" transform="translate(416,59)"/>
<path d="M0 0 C1.98 0 3.96 0 6 0 C6.33 1.32 6.66 2.64 7 4 C4.36 4 1.72 4 -1 4 C-0.67 2.68 -0.34 1.36 0 0 Z " fill="#D4B1B0" transform="translate(186,59)"/>
<path d="M0 0 C3.3 0 6.6 0 10 0 C10 0.66 10 1.32 10 2 C7.24075815 3.80411967 6.11027897 4.0127245 2.75 3.625 C1.8425 3.41875 0.935 3.2125 0 3 C0 2.01 0 1.02 0 0 Z " fill="#D2B1B1" transform="translate(127,61)"/>
<path d="M0 0 C2.97 0.495 2.97 0.495 6 1 C6 2.32 6 3.64 6 5 C3.69 5 1.38 5 -1 5 C-0.67 3.35 -0.34 1.7 0 0 Z " fill="#D4B1B1" transform="translate(360,58)"/>
<path d="M0 0 C2.31 0 4.62 0 7 0 C7 1.32 7 2.64 7 4 C4.69 4 2.38 4 0 4 C0 2.68 0 1.36 0 0 Z " fill="#D2AAAC" transform="translate(521,285)"/>
<path d="M0 0 C-0.625 1.875 -0.625 1.875 -2 4 C-4.875 5.375 -4.875 5.375 -8 6 C-10.375 5.125 -10.375 5.125 -12 4 C-10.35 4 -8.7 4 -7 4 C-7 3.34 -7 2.68 -7 2 C-2.25 0 -2.25 0 0 0 Z " fill="#F1D4D4" transform="translate(54,214)"/>
<path d="M0 0 C4.69978858 2.89217759 4.69978858 2.89217759 5.5546875 6.046875 C5.78597215 8.02330745 5.90062818 10.01256369 6 12 C4 10 4 10 3.0625 8 C2.03213141 5.67868591 2.03213141 5.67868591 -1 4 C-0.67 2.68 -0.34 1.36 0 0 Z " fill="#943338" transform="translate(53,76)"/>
<path d="M0 0 C2.31 0 4.62 0 7 0 C7 1.32 7 2.64 7 4 C4.69 4 2.38 4 0 4 C0 2.68 0 1.36 0 0 Z " fill="#D5ABAC" transform="translate(581,60)"/>
<path d="M0 0 C2.31 0 4.62 0 7 0 C7 1.32 7 2.64 7 4 C4.69 4 2.38 4 0 4 C0 2.68 0 1.36 0 0 Z " fill="#D3A9AB" transform="translate(262,60)"/>
<path d="M0 0 C2.31 0 4.62 0 7 0 C7 1.32 7 2.64 7 4 C4.69 4 2.38 4 0 4 C0 2.68 0 1.36 0 0 Z " fill="#D3AAA9" transform="translate(175,60)"/>
<path d="M0 0 C0.99 0 1.98 0 3 0 C3.268125 1.134375 3.53625 2.26875 3.8125 3.4375 C4.4003125 5.2009375 4.4003125 5.2009375 5 7 C5.99 7.33 6.98 7.66 8 8 C8 8.66 8 9.32 8 10 C6.35 9.67 4.7 9.34 3 9 C2.67 8.01 2.34 7.02 2 6 C1.34 5.67 0.68 5.34 0 5 C0 3.35 0 1.7 0 0 Z " fill="#90040A" transform="translate(657,145)"/>
<path d="M0 0 C0.33 1.32 0.66 2.64 1 4 C-1.71182212 6.60334924 -2.89133813 6.99456691 -6.75 7.1875 C-7.8225 7.125625 -8.895 7.06375 -10 7 C-9.01 6.34 -8.02 5.68 -7 5 C-5.76779826 4.12927928 -4.53869541 3.25415898 -3.3125 2.375 C-2.37857422 1.70597656 -2.37857422 1.70597656 -1.42578125 1.0234375 C-0.95527344 0.68570313 -0.48476563 0.34796875 0 0 Z " fill="#EBCCCE" transform="translate(55,103)"/>
<path d="M0 0 C1 3 1 3 0.14453125 4.7890625 C-0.51482422 5.69785156 -0.51482422 5.69785156 -1.1875 6.625 C-1.61417969 7.23601562 -2.04085937 7.84703125 -2.48046875 8.4765625 C-4.26692012 10.26760629 -5.53471865 10.60935585 -8 11 C-8 10.34 -8 9.68 -8 9 C-7.01 9 -6.02 9 -5 9 C-4.7834375 8.071875 -4.7834375 8.071875 -4.5625 7.125 C-4 5 -4 5 -3 3 C-2.34 3 -1.68 3 -1 3 C-0.67 2.01 -0.34 1.02 0 0 Z " fill="#872125" transform="translate(58,204)"/>
<path d="M0 0 C0 0.33 0 0.66 0 1 C-0.60328125 1.18175781 -1.2065625 1.36351562 -1.828125 1.55078125 C-6.10210307 2.89501629 -9.52439351 4.08049055 -13 7 C-13.66 7 -14.32 7 -15 7 C-14.00449135 4.3754772 -13.06036546 3.04971273 -10.875 1.25 C-7.01724826 -0.42728337 -4.18486798 -0.2127899 0 0 Z " fill="#841015" transform="translate(670,179)"/>
<path d="M0 0 C0.33 1.32 0.66 2.64 1 4 C0.34 4 -0.32 4 -1 4 C-1.12375 4.639375 -1.2475 5.27875 -1.375 5.9375 C-1.58125 6.618125 -1.7875 7.29875 -2 8 C-4.70879335 9.35439668 -7.00933268 9.06501451 -10 9 C-7 7 -7 7 -4.4375 6.1875 C-1.76236228 5.18995984 -1.76236228 5.18995984 -0.6875 2.375 C-0.460625 1.59125 -0.23375 0.8075 0 0 Z " fill="#E1BABB" transform="translate(56,157)"/>
<path d="M0 0 C2.64 0 5.28 0 8 0 C8.33 0.99 8.66 1.98 9 3 C6.03 3 3.06 3 0 3 C0 2.01 0 1.02 0 0 Z " fill="#C99FA1" transform="translate(530,285)"/>
<path d="M0 0 C1.98 0 3.96 0 6 0 C6 1.32 6 2.64 6 4 C4.02 4 2.04 4 0 4 C0 2.68 0 1.36 0 0 Z " fill="#CDA5A6" transform="translate(415,285)"/>
<path d="M0 0 C4.455 0.99 4.455 0.99 9 2 C9 2.33 9 2.66 9 3 C6.36 3 3.72 3 1 3 C0.67 3.66 0.34 4.32 0 5 C0 4.34 0 3.68 0 3 C-2.64 3 -5.28 3 -8 3 C-8 2.67 -8 2.34 -8 2 C-5.36 2 -2.72 2 0 2 C0 1.34 0 0.68 0 0 Z " fill="#FDECED" transform="translate(316,282)"/>
<path d="M0 0 C0.99 0 1.98 0 3 0 C3.33 2.64 3.66 5.28 4 8 C2.68 7.67 1.36 7.34 0 7 C0 4.69 0 2.38 0 0 Z " fill="#C6979A" transform="translate(87,276)"/>
<path d="M0 0 C0.33 0 0.66 0 1 0 C1 2.31 1 4.62 1 7 C1.99 7.33 2.98 7.66 4 8 C3.67 8.66 3.34 9.32 3 10 C2.34 10 1.68 10 1 10 C1 11.98 1 13.96 1 16 C0.67 16 0.34 16 0 16 C0 10.72 0 5.44 0 0 Z " fill="#FAE7E7" transform="translate(86,150)"/>
<path d="M0 0 C4.7517398 0.43197635 6.92000054 1.32769295 10 5 C8.35 5 6.7 5 5 5 C4.67 4.34 4.34 3.68 4 3 C1.97536745 2.34786708 1.97536745 2.34786708 0 2 C0 1.34 0 0.68 0 0 Z " fill="#861E21" transform="translate(44,136)"/>
<path d="M0 0 C5.28 0 10.56 0 16 0 C16 0.33 16 0.66 16 1 C14.02 1 12.04 1 10 1 C10 1.66 10 2.32 10 3 C9.01 3 8.02 3 7 3 C7 2.34 7 1.68 7 1 C4.69 1 2.38 1 0 1 C0 0.67 0 0.34 0 0 Z " fill="#FAE3E4" transform="translate(550,284)"/>
<path d="M0 0 C1 4 1 4 -0.1875 6.6875 C-2 9 -2 9 -6 10 C-4.02 6.7 -2.04 3.4 0 0 Z " fill="#E0BAB9" transform="translate(58,263)"/>
<path d="M0 0 C3.71599191 -0.20086443 4.77208445 -0.1519437 8 2 C8 2.99 8 3.98 8 5 C7.01 5 6.02 5 5 5 C5 4.34 5 3.68 5 3 C3.35 2.67 1.7 2.34 0 2 C0 1.34 0 0.68 0 0 Z " fill="#871217" transform="translate(45,73)"/>
<path d="M0 0 C1.32 0 2.64 0 4 0 C4 0.99 4 1.98 4 3 C5.98 3 7.96 3 10 3 C10 3.33 10 3.66 10 4 C6.37 4.33 2.74 4.66 -1 5 C-0.67 3.35 -0.34 1.7 0 0 Z " fill="#F8E5E5" transform="translate(510,60)"/>
<path d="M0 0 C0 0.33 0 0.66 0 1 C-1.98 1 -3.96 1 -6 1 C-6.33 1.66 -6.66 2.32 -7 3 C-11.455 2.01 -11.455 2.01 -16 1 C-16 0.67 -16 0.34 -16 0 C-10.42289352 -1.06795656 -5.60563042 -0.82622671 0 0 Z " fill="#F2D7D5" transform="translate(617,60)"/>
<path d="M0 0 C0.99 0 1.98 0 3 0 C3 2.31 3 4.62 3 7 C2.01 7 1.02 7 0 7 C0 4.69 0 2.38 0 0 Z " fill="#C79899" transform="translate(622,260)"/>
<path d="M0 0 C0.99 0 1.98 0 3 0 C3 2.31 3 4.62 3 7 C2.01 7 1.02 7 0 7 C0 4.69 0 2.38 0 0 Z " fill="#C9989A" transform="translate(622,250)"/>
<path d="M0 0 C0.99 0 1.98 0 3 0 C3 2.31 3 4.62 3 7 C2.01 7 1.02 7 0 7 C0 4.69 0 2.38 0 0 Z " fill="#C89898" transform="translate(622,241)"/>
<path d="M0 0 C0.99 0 1.98 0 3 0 C3 2.31 3 4.62 3 7 C2.01 7 1.02 7 0 7 C0 4.69 0 2.38 0 0 Z " fill="#C79695" transform="translate(622,231)"/>
<path d="M0 0 C0.99 0 1.98 0 3 0 C3 2.31 3 4.62 3 7 C2.01 7 1.02 7 0 7 C0 4.69 0 2.38 0 0 Z " fill="#CA9A9B" transform="translate(622,221)"/>
<path d="M0 0 C0.99 0 1.98 0 3 0 C3 2.31 3 4.62 3 7 C2.01 7 1.02 7 0 7 C0 4.69 0 2.38 0 0 Z " fill="#C79798" transform="translate(622,202)"/>
<path d="M0 0 C0.99 0 1.98 0 3 0 C3 2.31 3 4.62 3 7 C2.01 7 1.02 7 0 7 C0 4.69 0 2.38 0 0 Z " fill="#C89899" transform="translate(622,192)"/>
<path d="M0 0 C0.99 0 1.98 0 3 0 C3 2.31 3 4.62 3 7 C2.01 7 1.02 7 0 7 C0 4.69 0 2.38 0 0 Z " fill="#CA999A" transform="translate(622,183)"/>
<path d="M0 0 C0.99 0 1.98 0 3 0 C3 2.31 3 4.62 3 7 C2.01 7 1.02 7 0 7 C0 4.69 0 2.38 0 0 Z " fill="#C99999" transform="translate(622,173)"/>
<path d="M0 0 C0.99 0 1.98 0 3 0 C3 2.31 3 4.62 3 7 C2.01 7 1.02 7 0 7 C0 4.69 0 2.38 0 0 Z " fill="#C99897" transform="translate(622,163)"/>
<path d="M0 0 C0.99 0 1.98 0 3 0 C3 2.31 3 4.62 3 7 C2.01 7 1.02 7 0 7 C0 4.69 0 2.38 0 0 Z " fill="#CA989C" transform="translate(622,154)"/>
<path d="M0 0 C0.66 0 1.32 0 2 0 C1.38461538 5.53846154 1.38461538 5.53846154 -0.5625 7.875 C-1.036875 8.24625 -1.51125 8.6175 -2 9 C-2.25 3.375 -2.25 3.375 0 0 Z " fill="#89191E" transform="translate(55,153)"/>
<path d="M0 0 C0.99 0 1.98 0 3 0 C3 2.31 3 4.62 3 7 C2.01 7 1.02 7 0 7 C0 4.69 0 2.38 0 0 Z " fill="#C79798" transform="translate(622,144)"/>
<path d="M0 0 C0.99 0 1.98 0 3 0 C3 2.31 3 4.62 3 7 C2.01 7 1.02 7 0 7 C0 4.69 0 2.38 0 0 Z " fill="#C99799" transform="translate(622,134)"/>
<path d="M0 0 C0.99 0 1.98 0 3 0 C3 2.31 3 4.62 3 7 C2.01 7 1.02 7 0 7 C0 4.69 0 2.38 0 0 Z " fill="#C79797" transform="translate(622,115)"/>
<path d="M0 0 C0.99 0 1.98 0 3 0 C3 2.31 3 4.62 3 7 C2.01 7 1.02 7 0 7 C0 4.69 0 2.38 0 0 Z " fill="#C9999A" transform="translate(622,105)"/>
<path d="M0 0 C0.99 0 1.98 0 3 0 C3 2.31 3 4.62 3 7 C2.01 7 1.02 7 0 7 C0 4.69 0 2.38 0 0 Z " fill="#C99999" transform="translate(622,96)"/>
<path d="M0 0 C0.99 0 1.98 0 3 0 C3 2.31 3 4.62 3 7 C2.01 7 1.02 7 0 7 C0 4.69 0 2.38 0 0 Z " fill="#C89999" transform="translate(622,76)"/>
<path d="M0 0 C3.96 0 7.92 0 12 0 C10.68 0.33 9.36 0.66 8 1 C8 1.99 8 2.98 8 4 C7.01 4 6.02 4 5 4 C5 3.01 5 2.02 5 1 C3.35 1 1.7 1 0 1 C0 0.67 0 0.34 0 0 Z " fill="#F9ECEA" transform="translate(293,59)"/>
<path d="M0 0 C0.99 0 1.98 0 3 0 C3 1.98 3 3.96 3 6 C2.01 6.33 1.02 6.66 0 7 C0 4.69 0 2.38 0 0 Z " fill="#C99597" transform="translate(622,270)"/>
<path d="M0 0 C0.33 0 0.66 0 1 0 C2.29925791 4.33085971 3.343621 8.51474352 4 13 C0.06190389 9.23312546 0.06190389 9.23312546 -0.09765625 6.0546875 C-0.06510417 4.03645833 -0.03255208 2.01822917 0 0 Z " fill="#86292D" transform="translate(654,251)"/>
<path d="M0 0 C0.99 0 1.98 0 3 0 C3 1.98 3 3.96 3 6 C2.01 6.33 1.02 6.66 0 7 C0 4.69 0 2.38 0 0 Z " fill="#C79695" transform="translate(622,86)"/>
<path d="M0 0 C2.05078125 0.03255208 4.1015625 0.06510417 6.15234375 0.09765625 C6.48234375 0.75765625 6.81234375 1.41765625 7.15234375 2.09765625 C4.51234375 2.09765625 1.87234375 2.09765625 -0.84765625 2.09765625 C-1.17765625 2.75765625 -1.50765625 3.41765625 -1.84765625 4.09765625 C-2.17765625 3.10765625 -2.50765625 2.11765625 -2.84765625 1.09765625 C-1.84765625 0.09765625 -1.84765625 0.09765625 0 0 Z " fill="#F9E7E5" transform="translate(213.84765625,58.90234375)"/>
<path d="M0 0 C2 1 4 2 6 3 C6 4.32 6 5.64 6 7 C5.34 7 4.68 7 4 7 C0 2.52941176 0 2.52941176 0 0 Z " fill="#84191D" transform="translate(653,91)"/>
<path d="M0 0 C0.99 0 1.98 0 3 0 C3 0.99 3 1.98 3 3 C2.01 3 1.02 3 0 3 C0 5.31 0 7.62 0 10 C-0.33 10 -0.66 10 -1 10 C-1.02689216 8.52093108 -1.04634621 7.04172517 -1.0625 5.5625 C-1.07410156 4.73878906 -1.08570312 3.91507812 -1.09765625 3.06640625 C-1 1 -1 1 0 0 Z " fill="#FAE8E6" transform="translate(87,253)"/>
<path d="M0 0 C0.99 0 1.98 0 3 0 C3 1.98 3 3.96 3 6 C2.01 6 1.02 6 0 6 C0 4.02 0 2.04 0 0 Z " fill="#C28F91" transform="translate(622,212)"/>
<path d="M0 0 C0.99 0.33 1.98 0.66 3 1 C3 1.66 3 2.32 3 3 C3.99 3 4.98 3 6 3 C5.34 4.32 4.68 5.64 4 7 C1 5 1 5 0.3125 2.375 C0.209375 1.59125 0.10625 0.8075 0 0 Z " fill="#9D030B" transform="translate(47,75)"/>
<path d="M0 0 C0.99 0 1.98 0 3 0 C3 1.98 3 3.96 3 6 C2.01 6 1.02 6 0 6 C0 4.02 0 2.04 0 0 Z " fill="#C59091" transform="translate(622,67)"/>
<path d="M0 0 C1.98 0 3.96 0 6 0 C6 0.99 6 1.98 6 3 C3.69 3 1.38 3 -1 3 C-0.67 2.01 -0.34 1.02 0 0 Z " fill="#FBE8E5" transform="translate(524,58)"/>
<path d="M0 0 C1.98 0.66 3.96 1.32 6 2 C6 2.33 6 2.66 6 3 C3.69 3 1.38 3 -1 3 C-1 3.66 -1 4.32 -1 5 C-1.66 5 -2.32 5 -3 5 C-1.125 1.125 -1.125 1.125 0 0 Z " fill="#FDEDEE" transform="translate(541,282)"/>
<path d="M0 0 C1.32 0.66 2.64 1.32 4 2 C3.67 2.66 3.34 3.32 3 4 C0.69 4 -1.62 4 -4 4 C-2.68 2.68 -1.36 1.36 0 0 Z " fill="#FCF0F0" transform="translate(283,281)"/>
<path d="M0 0 C5.41538462 -0.36923077 5.41538462 -0.36923077 8.375 1.5 C8.91125 1.995 9.4475 2.49 10 3 C8.5199159 2.88637738 7.04089926 2.75877092 5.5625 2.625 C4.73878906 2.55539062 3.91507813 2.48578125 3.06640625 2.4140625 C2.38449219 2.27742188 1.70257812 2.14078125 1 2 C0.67 1.34 0.34 0.68 0 0 Z " fill="#83080D" transform="translate(662,266)"/>
<path d="M0 0 C0.33 0 0.66 0 1 0 C1 2.31 1 4.62 1 7 C1.99 7 2.98 7 4 7 C4 7.99 4 8.98 4 10 C3.01 10 2.02 10 1 10 C-0.60725635 6.78548731 -0.05748185 3.56387464 0 0 Z " fill="#F9E6E5" transform="translate(86,217)"/>
<path d="M0 0 C1.98 0.99 1.98 0.99 4 2 C4 2.66 4 3.32 4 4 C3.34 4 2.68 4 2 4 C2 5.98 2 7.96 2 10 C1.67 10 1.34 10 1 10 C0.67 6.7 0.34 3.4 0 0 Z " fill="#98030C" transform="translate(53,81)"/>
<path d="M0 0 C0.66 0 1.32 0 2 0 C1.1875 1.9375 1.1875 1.9375 0 4 C-0.99 4.33 -1.98 4.66 -3 5 C-5.1875 3.5625 -5.1875 3.5625 -7 2 C-4.69 2 -2.38 2 0 2 C0 1.34 0 0.68 0 0 Z " fill="#FCE9E9" transform="translate(579,61)"/>
</svg>
